<svg width="256" height="256" viewBox="0 0 256 256" fill="none" xmlns="http://www.w3.org/2000/svg">
  <g stroke="#2F4A3F" stroke-width="10" stroke-linecap="round" stroke-linejoin="round">
    <path d="M80 64c-22 0-40 18-40 40 0 10 4 20 10 26-6 6-10 16-10 26 0 22 18 40 40 40 6 0 12-2 18-4 4 10 14 18 26 18s22-8 26-18c6 2 12 4 18 4 22 0 40-18 40-40 0-10-4-20-10-26 6-6 10-16 10-26 0-22-18-40-40-40-6 0-12 2-18 4-4-10-14-18-26-18s-22 8-26 18c-6-2-12-4-18-4z"/>
    <path d="M94 94c0 18 0 68 0 84"/>
    <path d="M128 84v100"/>
    <path d="M162 94c0 18 0 68 0 84"/>
  </g>
</svg>