<svg xmlns="http://www.w3.org/2000/svg" width="1600" height="900" viewBox="0 0 1600 900">
<path d="M 1071.44,450.00 L 1070.91,467.04 L 1069.30,484.02 L 1066.64,500.86 L 1062.92,517.51 L 1058.16,533.88 L 1052.38,549.92 L 1045.61,565.57 L 1037.87,580.77 L 1029.19,595.45 L 1019.60,609.55 L 1009.15,623.02 L 997.87,635.82 L 985.82,647.87 L 973.02,659.15 L 959.55,669.60 L 945.45,679.19 L 930.77,687.87 L 915.57,695.61 L 899.92,702.38 L 883.88,708.16 L 867.51,712.92 L 850.86,716.64 L 834.02,719.30 L 817.04,720.91 L 800.00,721.44 L 782.96,720.91 L 765.98,719.30 L 749.14,716.64 L 732.49,712.92 L 716.12,708.16 L 700.08,702.38 L 684.43,695.61 L 669.23,687.87 L 654.55,679.19 L 640.45,669.60 L 626.98,659.15 L 614.18,647.87 L 602.13,635.82 L 590.85,623.02 L 580.40,609.55 L 570.81,595.45 L 562.13,580.77 L 554.39,565.57 L 547.62,549.92 L 541.84,533.88 L 537.08,517.51 L 533.36,500.86 L 530.70,484.02 L 529.09,467.04 L 528.56,450.00 L 529.09,432.96 L 530.70,415.98 L 533.36,399.14 L 537.08,382.49 L 541.84,366.12 L 547.62,350.08 L 554.39,334.43 L 562.13,319.23 L 570.81,304.55 L 580.40,290.45 L 590.85,276.98 L 602.13,264.18 L 614.18,252.13 L 626.98,240.85 L 640.45,230.40 L 654.55,220.81 L 669.23,212.13 L 684.43,204.39 L 700.08,197.62 L 716.12,191.84 L 732.49,187.08 L 749.14,183.36 L 765.98,180.70 L 782.96,179.09 L 800.00,178.56 L 817.04,179.09 L 834.02,180.70 L 850.86,183.36 L 867.51,187.08 L 883.88,191.84 L 899.92,197.62 L 915.57,204.39 L 930.77,212.13 L 945.45,220.81 L 959.55,230.40 L 973.02,240.85 L 985.82,252.13 L 997.87,264.18 L 1009.15,276.98 L 1019.60,290.45 L 1029.19,304.55 L 1037.87,319.23 L 1045.61,334.43 L 1052.38,350.08 L 1058.16,366.12 L 1062.92,382.49 L 1066.64,399.14 L 1069.30,415.98 L 1070.91,432.96 L 1071.44,450.00 L 1070.91,467.04 L 1069.30,484.02 L 1066.64,500.86 L 1062.92,517.51 L 1058.16,533.88 L 1052.38,549.92 L 1045.61,565.57 L 1037.87,580.77 L 1029.19,595.45 L 1019.60,609.55 L 1009.15,623.02 L 997.87,635.82 L 985.82,647.87 L 973.02,659.15 L 959.55,669.60 L 945.45,679.19 L 930.77,687.87 L 915.57,695.61 L 899.92,702.38 L 883.88,708.16 L 867.51,712.92 L 850.86,716.64 L 834.02,719.30 L 817.04,720.91 L 800.00,721.44 L 782.96,720.91 L 765.98,719.30 L 749.14,716.64 L 732.49,712.92 L 716.12,708.16 L 700.08,702.38 L 684.43,695.61 L 669.23,687.87 L 654.55,679.19 L 640.45,669.60 L 626.98,659.15 L 614.18,647.87 L 602.13,635.82 L 590.85,623.02 L 580.40,609.55 L 570.81,595.45 L 562.13,580.77 L 554.39,565.57 L 547.62,549.92 L 541.84,533.88 L 537.08,517.51 L 533.36,500.86 L 530.70,484.02 L 529.09,467.04 L 528.56,450.00 L 529.09,432.96 L 530.70,415.98 L 533.36,399.14 L 537.08,382.49 L 541.84,366.12 L 547.62,350.08 L 554.39,334.43 L 562.13,319.23 L 570.81,304.55 L 580.40,290.45 L 590.85,276.98 L 602.13,264.18 L 614.18,252.13 L 626.98,240.85 L 640.45,230.40 L 654.55,220.81 L 669.23,212.13 L 684.43,204.39 L 700.08,197.62 L 716.12,191.84 L 732.49,187.08 L 749.14,183.36 L 765.98,180.70 L 782.96,179.09 L 800.00,178.56 L 817.04,179.09 L 834.02,180.70 L 850.86,183.36 L 867.51,187.08 L 883.88,191.84 L 899.92,197.62 L 915.57,204.39 L 930.77,212.13 L 945.45,220.81 L 959.55,230.40 L 973.02,240.85 L 985.82,252.13 L 997.87,264.18 L 1009.15,276.98 L 1019.60,290.45 L 1029.19,304.55 L 1037.87,319.23 L 1045.61,334.43 L 1052.38,350.08 L 1058.16,366.12 L 1062.92,382.49 L 1066.64,399.14 L 1069.30,415.98 L 1070.91,432.96 L 1071.44,450.00 " fill="none" stroke="#E11D48" stroke-opacity="0.2" stroke-width="1.8"/>
<path d="M 1132.55,450.00 L 1131.89,470.88 L 1129.93,491.68 L 1126.66,512.31 L 1122.10,532.70 L 1116.27,552.76 L 1109.20,572.42 L 1100.90,591.59 L 1091.42,610.21 L 1080.78,628.19 L 1069.04,645.47 L 1056.23,661.98 L 1042.42,677.65 L 1027.65,692.42 L 1011.98,706.23 L 995.47,719.04 L 978.19,730.78 L 960.21,741.42 L 941.59,750.90 L 922.42,759.20 L 902.76,766.27 L 882.70,772.10 L 862.31,776.66 L 841.68,779.93 L 820.88,781.89 L 800.00,782.55 L 779.12,781.89 L 758.32,779.93 L 737.69,776.66 L 717.30,772.10 L 697.24,766.27 L 677.58,759.20 L 658.41,750.90 L 639.79,741.42 L 621.81,730.78 L 604.53,719.04 L 588.02,706.23 L 572.35,692.42 L 557.58,677.65 L 543.77,661.98 L 530.96,645.47 L 519.22,628.19 L 508.58,610.21 L 499.10,591.59 L 490.80,572.42 L 483.73,552.76 L 477.90,532.70 L 473.34,512.31 L 470.07,491.68 L 468.11,470.88 L 467.45,450.00 L 468.11,429.12 L 470.07,408.32 L 473.34,387.69 L 477.90,367.30 L 483.73,347.24 L 490.80,327.58 L 499.10,308.41 L 508.58,289.79 L 519.22,271.81 L 530.96,254.53 L 543.77,238.02 L 557.58,222.35 L 572.35,207.58 L 588.02,193.77 L 604.53,180.96 L 621.81,169.22 L 639.79,158.58 L 658.41,149.10 L 677.58,140.80 L 697.24,133.73 L 717.30,127.90 L 737.69,123.34 L 758.32,120.07 L 779.12,118.11 L 800.00,117.45 L 820.88,118.11 L 841.68,120.07 L 862.31,123.34 L 882.70,127.90 L 902.76,133.73 L 922.42,140.80 L 941.59,149.10 L 960.21,158.58 L 978.19,169.22 L 995.47,180.96 L 1011.98,193.77 L 1027.65,207.58 L 1042.42,222.35 L 1056.23,238.02 L 1069.04,254.53 L 1080.78,271.81 L 1091.42,289.79 L 1100.90,308.41 L 1109.20,327.58 L 1116.27,347.24 L 1122.10,367.30 L 1126.66,387.69 L 1129.93,408.32 L 1131.89,429.12 L 1132.55,450.00 L 1131.89,470.88 L 1129.93,491.68 L 1126.66,512.31 L 1122.10,532.70 L 1116.27,552.76 L 1109.20,572.42 L 1100.90,591.59 L 1091.42,610.21 L 1080.78,628.19 L 1069.04,645.47 L 1056.23,661.98 L 1042.42,677.65 L 1027.65,692.42 L 1011.98,706.23 L 995.47,719.04 L 978.19,730.78 L 960.21,741.42 L 941.59,750.90 L 922.42,759.20 L 902.76,766.27 L 882.70,772.10 L 862.31,776.66 L 841.68,779.93 L 820.88,781.89 L 800.00,782.55 L 779.12,781.89 L 758.32,779.93 L 737.69,776.66 L 717.30,772.10 L 697.24,766.27 L 677.58,759.20 L 658.41,750.90 L 639.79,741.42 L 621.81,730.78 L 604.53,719.04 L 588.02,706.23 L 572.35,692.42 L 557.58,677.65 L 543.77,661.98 L 530.96,645.47 L 519.22,628.19 L 508.58,610.21 L 499.10,591.59 L 490.80,572.42 L 483.73,552.76 L 477.90,532.70 L 473.34,512.31 L 470.07,491.68 L 468.11,470.88 L 467.45,450.00 L 468.11,429.12 L 470.07,408.32 L 473.34,387.69 L 477.90,367.30 L 483.73,347.24 L 490.80,327.58 L 499.10,308.41 L 508.58,289.79 L 519.22,271.81 L 530.96,254.53 L 543.77,238.02 L 557.58,222.35 L 572.35,207.58 L 588.02,193.77 L 604.53,180.96 L 621.81,169.22 L 639.79,158.58 L 658.41,149.10 L 677.58,140.80 L 697.24,133.73 L 717.30,127.90 L 737.69,123.34 L 758.32,120.07 L 779.12,118.11 L 800.00,117.45 L 820.88,118.11 L 841.68,120.07 L 862.31,123.34 L 882.70,127.90 L 902.76,133.73 L 922.42,140.80 L 941.59,149.10 L 960.21,158.58 L 978.19,169.22 L 995.47,180.96 L 1011.98,193.77 L 1027.65,207.58 L 1042.42,222.35 L 1056.23,238.02 L 1069.04,254.53 L 1080.78,271.81 L 1091.42,289.79 L 1100.90,308.41 L 1109.20,327.58 L 1116.27,347.24 L 1122.10,367.30 L 1126.66,387.69 L 1129.93,408.32 L 1131.89,429.12 L 1132.55,450.00 " fill="none" stroke="#E11D48" stroke-opacity="0.2" stroke-width="1.8"/>
<path d="M 1159.63,450.00 L 1158.92,472.58 L 1156.79,495.07 L 1153.26,517.39 L 1148.33,539.44 L 1142.02,561.13 L 1134.37,582.39 L 1125.40,603.12 L 1115.14,623.25 L 1103.64,642.70 L 1090.94,661.38 L 1077.10,679.23 L 1062.16,696.18 L 1046.18,712.16 L 1029.23,727.10 L 1011.38,740.94 L 992.70,753.64 L 973.25,765.14 L 953.12,775.40 L 932.39,784.37 L 911.13,792.02 L 889.44,798.33 L 867.39,803.26 L 845.07,806.79 L 822.58,808.92 L 800.00,809.63 L 777.42,808.92 L 754.93,806.79 L 732.61,803.26 L 710.56,798.33 L 688.87,792.02 L 667.61,784.37 L 646.88,775.40 L 626.75,765.14 L 607.30,753.64 L 588.62,740.94 L 570.77,727.10 L 553.82,712.16 L 537.84,696.18 L 522.90,679.23 L 509.06,661.38 L 496.36,642.70 L 484.86,623.25 L 474.60,603.12 L 465.63,582.39 L 457.98,561.13 L 451.67,539.44 L 446.74,517.39 L 443.21,495.07 L 441.08,472.58 L 440.37,450.00 L 441.08,427.42 L 443.21,404.93 L 446.74,382.61 L 451.67,360.56 L 457.98,338.87 L 465.63,317.61 L 474.60,296.88 L 484.86,276.75 L 496.36,257.30 L 509.06,238.62 L 522.90,220.77 L 537.84,203.82 L 553.82,187.84 L 570.77,172.90 L 588.62,159.06 L 607.30,146.36 L 626.75,134.86 L 646.88,124.60 L 667.61,115.63 L 688.87,107.98 L 710.56,101.67 L 732.61,96.74 L 754.93,93.21 L 777.42,91.08 L 800.00,90.37 L 822.58,91.08 L 845.07,93.21 L 867.39,96.74 L 889.44,101.67 L 911.13,107.98 L 932.39,115.63 L 953.12,124.60 L 973.25,134.86 L 992.70,146.36 L 1011.38,159.06 L 1029.23,172.90 L 1046.18,187.84 L 1062.16,203.82 L 1077.10,220.77 L 1090.94,238.62 L 1103.64,257.30 L 1115.14,276.75 L 1125.40,296.88 L 1134.37,317.61 L 1142.02,338.87 L 1148.33,360.56 L 1153.26,382.61 L 1156.79,404.93 L 1158.92,427.42 L 1159.63,450.00 L 1158.92,472.58 L 1156.79,495.07 L 1153.26,517.39 L 1148.33,539.44 L 1142.02,561.13 L 1134.37,582.39 L 1125.40,603.12 L 1115.14,623.25 L 1103.64,642.70 L 1090.94,661.38 L 1077.10,679.23 L 1062.16,696.18 L 1046.18,712.16 L 1029.23,727.10 L 1011.38,740.94 L 992.70,753.64 L 973.25,765.14 L 953.12,775.40 L 932.39,784.37 L 911.13,792.02 L 889.44,798.33 L 867.39,803.26 L 845.07,806.79 L 822.58,808.92 L 800.00,809.63 L 777.42,808.92 L 754.93,806.79 L 732.61,803.26 L 710.56,798.33 L 688.87,792.02 L 667.61,784.37 L 646.88,775.40 L 626.75,765.14 L 607.30,753.64 L 588.62,740.94 L 570.77,727.10 L 553.82,712.16 L 537.84,696.18 L 522.90,679.23 L 509.06,661.38 L 496.36,642.70 L 484.86,623.25 L 474.60,603.12 L 465.63,582.39 L 457.98,561.13 L 451.67,539.44 L 446.74,517.39 L 443.21,495.07 L 441.08,472.58 L 440.37,450.00 L 441.08,427.42 L 443.21,404.93 L 446.74,382.61 L 451.67,360.56 L 457.98,338.87 L 465.63,317.61 L 474.60,296.88 L 484.86,276.75 L 496.36,257.30 L 509.06,238.62 L 522.90,220.77 L 537.84,203.82 L 553.82,187.84 L 570.77,172.90 L 588.62,159.06 L 607.30,146.36 L 626.75,134.86 L 646.88,124.60 L 667.61,115.63 L 688.87,107.98 L 710.56,101.67 L 732.61,96.74 L 754.93,93.21 L 777.42,91.08 L 800.00,90.37 L 822.58,91.08 L 845.07,93.21 L 867.39,96.74 L 889.44,101.67 L 911.13,107.98 L 932.39,115.63 L 953.12,124.60 L 973.25,134.86 L 992.70,146.36 L 1011.38,159.06 L 1029.23,172.90 L 1046.18,187.84 L 1062.16,203.82 L 1077.10,220.77 L 1090.94,238.62 L 1103.64,257.30 L 1115.14,276.75 L 1125.40,296.88 L 1134.37,317.61 L 1142.02,338.87 L 1148.33,360.56 L 1153.26,382.61 L 1156.79,404.93 L 1158.92,427.42 L 1159.63,450.00 " fill="none" stroke="#E11D48" stroke-opacity="0.2" stroke-width="1.8"/>
<path d="M 1155.02,450.00 L 1154.85,461.15 L 1154.32,472.29 L 1153.45,483.41 L 1152.22,494.50 L 1150.65,505.54 L 1148.73,516.52 L 1146.47,527.45 L 1143.87,538.29 L 1140.92,549.05 L 1137.65,559.71 L 1134.03,570.26 L 1130.09,580.69 L 1125.82,591.00 L 1121.23,601.16 L 1116.33,611.18 L 1111.11,621.03 L 1105.58,630.72 L 1099.75,640.23 L 1093.63,649.55 L 1087.22,658.68 L 1080.52,667.59 L 1073.55,676.30 L 1066.31,684.78 L 1058.80,693.03 L 1051.04,701.04 L 1043.03,708.80 L 1034.78,716.31 L 1026.30,723.55 L 1017.59,730.52 L 1008.68,737.22 L 999.55,743.63 L 990.23,749.75 L 980.72,755.58 L 971.03,761.11 L 961.18,766.33 L 951.16,771.23 L 941.00,775.82 L 930.69,780.09 L 920.26,784.03 L 909.71,787.65 L 899.05,790.92 L 888.29,793.87 L 877.45,796.47 L 866.52,798.73 L 855.54,800.65 L 844.50,802.22 L 833.41,803.45 L 822.29,804.32 L 811.15,804.85 L 800.00,805.02 L 788.85,804.85 L 777.71,804.32 L 766.59,803.45 L 755.50,802.22 L 744.46,800.65 L 733.48,798.73 L 722.55,796.47 L 711.71,793.87 L 700.95,790.92 L 690.29,787.65 L 679.74,784.03 L 669.31,780.09 L 659.00,775.82 L 648.84,771.23 L 638.82,766.33 L 628.97,761.11 L 619.28,755.58 L 609.77,749.75 L 600.45,743.63 L 591.32,737.22 L 582.41,730.52 L 573.70,723.55 L 565.22,716.31 L 556.97,708.80 L 548.96,701.04 L 541.20,693.03 L 533.69,684.78 L 526.45,676.30 L 519.48,667.59 L 512.78,658.68 L 506.37,649.55 L 500.25,640.23 L 494.42,630.72 L 488.89,621.03 L 483.67,611.18 L 478.77,601.16 L 474.18,591.00 L 469.91,580.69 L 465.97,570.26 L 462.35,559.71 L 459.08,549.05 L 456.13,538.29 L 453.53,527.45 L 451.27,516.52 L 449.35,505.54 L 447.78,494.50 L 446.55,483.41 L 445.68,472.29 L 445.15,461.15 L 444.98,450.00 L 445.15,438.85 L 445.68,427.71 L 446.55,416.59 L 447.78,405.50 L 449.35,394.46 L 451.27,383.48 L 453.53,372.55 L 456.13,361.71 L 459.08,350.95 L 462.35,340.29 L 465.97,329.74 L 469.91,319.31 L 474.18,309.00 L 478.77,298.84 L 483.67,288.82 L 488.89,278.97 L 494.42,269.28 L 500.25,259.77 L 506.37,250.45 L 512.78,241.32 L 519.48,232.41 L 526.45,223.70 L 533.69,215.22 L 541.20,206.97 L 548.96,198.96 L 556.97,191.20 L 565.22,183.69 L 573.70,176.45 L 582.41,169.48 L 591.32,162.78 L 600.45,156.37 L 609.77,150.25 L 619.28,144.42 L 628.97,138.89 L 638.82,133.67 L 648.84,128.77 L 659.00,124.18 L 669.31,119.91 L 679.74,115.97 L 690.29,112.35 L 700.95,109.08 L 711.71,106.13 L 722.55,103.53 L 733.48,101.27 L 744.46,99.35 L 755.50,97.78 L 766.59,96.55 L 777.71,95.68 L 788.85,95.15 L 800.00,94.98 L 811.15,95.15 L 822.29,95.68 L 833.41,96.55 L 844.50,97.78 L 855.54,99.35 L 866.52,101.27 L 877.45,103.53 L 888.29,106.13 L 899.05,109.08 L 909.71,112.35 L 920.26,115.97 L 930.69,119.91 L 941.00,124.18 L 951.16,128.77 L 961.18,133.67 L 971.03,138.89 L 980.72,144.42 L 990.23,150.25 L 999.55,156.37 L 1008.68,162.78 L 1017.59,169.48 L 1026.30,176.45 L 1034.78,183.69 L 1043.03,191.20 L 1051.04,198.96 L 1058.80,206.97 L 1066.31,215.22 L 1073.55,223.70 L 1080.52,232.41 L 1087.22,241.32 L 1093.63,250.45 L 1099.75,259.77 L 1105.58,269.28 L 1111.11,278.97 L 1116.33,288.82 L 1121.23,298.84 L 1125.82,309.00 L 1130.09,319.31 L 1134.03,329.74 L 1137.65,340.29 L 1140.92,350.95 L 1143.87,361.71 L 1146.47,372.55 L 1148.73,383.48 L 1150.65,394.46 L 1152.22,405.50 L 1153.45,416.59 L 1154.32,427.71 L 1154.85,438.85 L 1155.02,450.00 " fill="none" stroke="#E11D48" stroke-opacity="0.2" stroke-width="1.8"/>
<path d="M 1115.66,450.00 L 1115.51,459.92 L 1115.04,469.82 L 1114.26,479.71 L 1113.17,489.56 L 1111.77,499.38 L 1110.07,509.15 L 1108.06,518.86 L 1105.74,528.50 L 1103.13,538.07 L 1100.21,547.54 L 1097.00,556.93 L 1093.49,566.20 L 1089.70,575.36 L 1085.62,584.40 L 1081.26,593.31 L 1076.62,602.07 L 1071.70,610.68 L 1066.52,619.14 L 1061.08,627.43 L 1055.38,635.54 L 1049.42,643.47 L 1043.22,651.21 L 1036.78,658.75 L 1030.11,666.08 L 1023.21,673.21 L 1016.08,680.11 L 1008.75,686.78 L 1001.21,693.22 L 993.47,699.42 L 985.54,705.38 L 977.43,711.08 L 969.14,716.52 L 960.68,721.70 L 952.07,726.62 L 943.31,731.26 L 934.40,735.62 L 925.36,739.70 L 916.20,743.49 L 906.93,747.00 L 897.54,750.21 L 888.07,753.13 L 878.50,755.74 L 868.86,758.06 L 859.15,760.07 L 849.38,761.77 L 839.56,763.17 L 829.71,764.26 L 819.82,765.04 L 809.92,765.51 L 800.00,765.66 L 790.08,765.51 L 780.18,765.04 L 770.29,764.26 L 760.44,763.17 L 750.62,761.77 L 740.85,760.07 L 731.14,758.06 L 721.50,755.74 L 711.93,753.13 L 702.46,750.21 L 693.07,747.00 L 683.80,743.49 L 674.64,739.70 L 665.60,735.62 L 656.69,731.26 L 647.93,726.62 L 639.32,721.70 L 630.86,716.52 L 622.57,711.08 L 614.46,705.38 L 606.53,699.42 L 598.79,693.22 L 591.25,686.78 L 583.92,680.11 L 576.79,673.21 L 569.89,666.08 L 563.22,658.75 L 556.78,651.21 L 550.58,643.47 L 544.62,635.54 L 538.92,627.43 L 533.48,619.14 L 528.30,610.68 L 523.38,602.07 L 518.74,593.31 L 514.38,584.40 L 510.30,575.36 L 506.51,566.20 L 503.00,556.93 L 499.79,547.54 L 496.87,538.07 L 494.26,528.50 L 491.94,518.86 L 489.93,509.15 L 488.23,499.38 L 486.83,489.56 L 485.74,479.71 L 484.96,469.82 L 484.49,459.92 L 484.34,450.00 L 484.49,440.08 L 484.96,430.18 L 485.74,420.29 L 486.83,410.44 L 488.23,400.62 L 489.93,390.85 L 491.94,381.14 L 494.26,371.50 L 496.87,361.93 L 499.79,352.46 L 503.00,343.07 L 506.51,333.80 L 510.30,324.64 L 514.38,315.60 L 518.74,306.69 L 523.38,297.93 L 528.30,289.32 L 533.48,280.86 L 538.92,272.57 L 544.62,264.46 L 550.58,256.53 L 556.78,248.79 L 563.22,241.25 L 569.89,233.92 L 576.79,226.79 L 583.92,219.89 L 591.25,213.22 L 598.79,206.78 L 606.53,200.58 L 614.46,194.62 L 622.57,188.92 L 630.86,183.48 L 639.32,178.30 L 647.93,173.38 L 656.69,168.74 L 665.60,164.38 L 674.64,160.30 L 683.80,156.51 L 693.07,153.00 L 702.46,149.79 L 711.93,146.87 L 721.50,144.26 L 731.14,141.94 L 740.85,139.93 L 750.62,138.23 L 760.44,136.83 L 770.29,135.74 L 780.18,134.96 L 790.08,134.49 L 800.00,134.34 L 809.92,134.49 L 819.82,134.96 L 829.71,135.74 L 839.56,136.83 L 849.38,138.23 L 859.15,139.93 L 868.86,141.94 L 878.50,144.26 L 888.07,146.87 L 897.54,149.79 L 906.93,153.00 L 916.20,156.51 L 925.36,160.30 L 934.40,164.38 L 943.31,168.74 L 952.07,173.38 L 960.68,178.30 L 969.14,183.48 L 977.43,188.92 L 985.54,194.62 L 993.47,200.58 L 1001.21,206.78 L 1008.75,213.22 L 1016.08,219.89 L 1023.21,226.79 L 1030.11,233.92 L 1036.78,241.25 L 1043.22,248.79 L 1049.42,256.53 L 1055.38,264.46 L 1061.08,272.57 L 1066.52,280.86 L 1071.70,289.32 L 1076.62,297.93 L 1081.26,306.69 L 1085.62,315.60 L 1089.70,324.64 L 1093.49,333.80 L 1097.00,343.07 L 1100.21,352.46 L 1103.13,361.93 L 1105.74,371.50 L 1108.06,381.14 L 1110.07,390.85 L 1111.77,400.62 L 1113.17,410.44 L 1114.26,420.29 L 1115.04,430.18 L 1115.51,440.08 L 1115.66,450.00 " fill="none" stroke="#E11D48" stroke-opacity="0.2" stroke-width="1.8"/>
</svg>
