<svg xmlns="http://www.w3.org/2000/svg" width="1600" height="900" viewBox="0 0 1600 900">
<path d="M 1164.43,559.68 L 1164.79,568.80 L 1164.86,577.65 L 1164.59,586.21 L 1163.97,594.49 L 1162.96,602.46 L 1161.53,610.13 L 1159.67,617.49 L 1157.35,624.54 L 1154.55,631.27 L 1151.25,637.68 L 1147.43,643.76 L 1143.10,649.53 L 1138.22,654.97 L 1132.80,660.08 L 1126.84,664.87 L 1120.33,669.34 L 1113.28,673.49 L 1105.70,677.31 L 1097.59,680.82 L 1088.96,684.02 L 1079.84,686.91 L 1070.24,689.50 L 1060.18,691.79 L 1049.70,693.78 L 1038.82,695.48 L 1027.56,696.90 L 1015.97,698.04 L 1004.07,698.91 L 991.92,699.51 L 979.53,699.86 L 966.96,699.96 L 954.24,699.81 L 941.42,699.42 L 928.54,698.81 L 915.65,697.97 L 902.77,696.91 L 889.96,695.65 L 877.26,694.18 L 864.70,692.51 L 852.33,690.66 L 840.18,688.63 L 828.29,686.41 L 816.69,684.03 L 805.41,681.48 L 794.49,678.77 L 783.93,675.91 L 773.78,672.90 L 764.04,669.74 L 754.73,666.44 L 745.88,663.01 L 737.48,659.44 L 729.54,655.74 L 722.07,651.92 L 715.08,647.97 L 708.54,643.90 L 702.47,639.71 L 696.85,635.40 L 691.67,630.98 L 686.91,626.43 L 682.56,621.78 L 678.61,617.00 L 675.02,612.12 L 671.78,607.12 L 668.86,602.00 L 666.23,596.77 L 663.88,591.42 L 661.77,585.95 L 659.87,580.36 L 658.16,574.66 L 656.61,568.83 L 655.20,562.89 L 653.89,556.82 L 652.66,550.62 L 651.48,544.30 L 650.34,537.85 L 649.22,531.28 L 648.09,524.57 L 646.93,517.74 L 645.74,510.77 L 644.50,503.68 L 643.20,496.45 L 641.84,489.10 L 640.41,481.61 L 638.91,474.00 L 637.34,466.25 L 635.71,458.38 L 634.02,450.38 L 632.29,442.26 L 630.53,434.03 L 628.75,425.67 L 626.98,417.20 L 625.23,408.62 L 623.52,399.94 L 621.88,391.16 L 620.34,382.29 L 618.92,373.33 L 617.65,364.29 L 616.56,355.17 L 615.68,345.99 L 615.04,336.76 L 614.68,327.48 L 614.61,318.15 L 614.88,308.80 L 615.50,299.43 L 616.51,290.06 L 617.94,280.69 L 619.80,271.33 L 622.12,262.00 L 624.92,252.71 L 628.22,243.48 L 632.03,234.31 L 636.37,225.23 L 641.25,216.23 L 646.66,207.35 L 652.63,198.59 L 659.13,189.96 L 666.18,181.49 L 673.77,173.18 L 681.88,165.06 L 690.51,157.13 L 699.63,149.42 L 709.23,141.93 L 719.29,134.68 L 729.77,127.68 L 740.65,120.96 L 751.91,114.51 L 763.50,108.37 L 775.39,102.54 L 787.55,97.03 L 799.94,91.85 L 812.51,87.03 L 825.23,82.56 L 838.04,78.47 L 850.93,74.76 L 863.82,71.44 L 876.70,68.53 L 889.51,66.02 L 902.21,63.94 L 914.77,62.28 L 927.14,61.05 L 939.29,60.26 L 951.18,59.92 L 962.78,60.02 L 974.05,60.57 L 984.98,61.58 L 995.54,63.04 L 1005.69,64.95 L 1015.43,67.33 L 1024.74,70.15 L 1033.59,73.43 L 1041.99,77.15 L 1049.93,81.32 L 1057.39,85.93 L 1064.39,90.98 L 1070.93,96.45 L 1077.00,102.34 L 1082.62,108.65 L 1087.80,115.35 L 1092.56,122.45 L 1096.91,129.94 L 1100.86,137.79 L 1104.45,146.00 L 1107.69,154.56 L 1110.61,163.44 L 1113.24,172.65 L 1115.59,182.15 L 1117.70,191.95 L 1119.60,202.01 L 1121.31,212.33 L 1122.86,222.88 L 1124.27,233.65 L 1125.58,244.63 L 1126.81,255.79 L 1127.99,267.11 L 1129.13,278.58 L 1130.25,290.18 L 1131.38,301.89 L 1132.54,313.69 L 1133.73,325.56 L 1134.97,337.48 L 1136.27,349.43 L 1137.63,361.40 L 1139.06,373.36 L 1140.56,385.31 L 1142.13,397.21 L 1143.76,409.05 L 1145.45,420.82 L 1147.18,432.49 L 1148.94,444.05 L 1150.71,455.49 L 1152.49,466.78 L 1154.24,477.91 L 1155.95,488.88 L 1157.59,499.65 L 1159.13,510.23 L 1160.55,520.59 L 1161.82,530.73 L 1162.91,540.63 L 1163.79,550.28 L 1164.43,559.68 L 1164.79,568.80 L 1164.86,577.65 L 1164.59,586.21 L 1163.97,594.49 L 1162.96,602.46 L 1161.53,610.13 L 1159.67,617.49 L 1157.35,624.54 L 1154.55,631.27 L 1151.25,637.68 L 1147.43,643.76 L 1143.10,649.53 L 1138.22,654.97 L 1132.80,660.08 L 1126.84,664.87 L 1120.33,669.34 L 1113.28,673.49 L 1105.70,677.31 L 1097.59,680.82 L 1088.96,684.02 L 1079.84,686.91 L 1070.24,689.50 L 1060.18,691.79 L 1049.70,693.78 L 1038.82,695.48 L 1027.56,696.90 L 1015.97,698.04 L 1004.07,698.91 L 991.92,699.51 L 979.53,699.86 L 966.96,699.96 L 954.24,699.81 L 941.42,699.42 L 928.54,698.81 L 915.65,697.97 L 902.77,696.91 L 889.96,695.65 L 877.26,694.18 L 864.70,692.51 L 852.33,690.66 L 840.18,688.63 L 828.29,686.41 L 816.69,684.03 L 805.41,681.48 L 794.49,678.77 L 783.93,675.91 L 773.78,672.90 L 764.04,669.74 L 754.73,666.44 L 745.88,663.01 L 737.48,659.44 L 729.54,655.74 L 722.07,651.92 L 715.08,647.97 L 708.54,643.90 L 702.47,639.71 L 696.85,635.40 L 691.67,630.98 L 686.91,626.43 L 682.56,621.78 L 678.61,617.00 L 675.02,612.12 L 671.78,607.12 L 668.86,602.00 L 666.23,596.77 L 663.88,591.42 L 661.77,585.95 L 659.87,580.36 L 658.16,574.66 L 656.61,568.83 L 655.20,562.89 L 653.89,556.82 L 652.66,550.62 L 651.48,544.30 L 650.34,537.85 L 649.22,531.28 L 648.09,524.57 L 646.93,517.74 L 645.74,510.77 L 644.50,503.68 L 643.20,496.45 L 641.84,489.10 L 640.41,481.61 L 638.91,474.00 L 637.34,466.25 L 635.71,458.38 L 634.02,450.38 L 632.29,442.26 L 630.53,434.03 L 628.75,425.67 L 626.98,417.20 L 625.23,408.62 L 623.52,399.94 L 621.88,391.16 L 620.34,382.29 L 618.92,373.33 L 617.65,364.29 L 616.56,355.17 L 615.68,345.99 L 615.04,336.76 L 614.68,327.48 L 614.61,318.15 L 614.88,308.80 L 615.50,299.43 L 616.51,290.06 L 617.94,280.69 L 619.80,271.33 L 622.12,262.00 L 624.92,252.71 L 628.22,243.48 L 632.03,234.31 L 636.37,225.23 L 641.25,216.23 L 646.66,207.35 L 652.63,198.59 L 659.13,189.96 L 666.18,181.49 L 673.77,173.18 L 681.88,165.06 L 690.51,157.13 L 699.63,149.42 L 709.23,141.93 L 719.29,134.68 L 729.77,127.68 L 740.65,120.96 L 751.91,114.51 L 763.50,108.37 L 775.39,102.54 L 787.55,97.03 L 799.94,91.85 L 812.51,87.03 L 825.23,82.56 L 838.04,78.47 L 850.93,74.76 L 863.82,71.44 L 876.70,68.53 L 889.51,66.02 L 902.21,63.94 L 914.77,62.28 L 927.14,61.05 L 939.29,60.26 L 951.18,59.92 L 962.78,60.02 L 974.05,60.57 L 984.98,61.58 L 995.54,63.04 L 1005.69,64.95 L 1015.43,67.33 L 1024.74,70.15 L 1033.59,73.43 L 1041.99,77.15 L 1049.93,81.32 L 1057.39,85.93 L 1064.39,90.98 L 1070.93,96.45 L 1077.00,102.34 L 1082.62,108.65 L 1087.80,115.35 L 1092.56,122.45 L 1096.91,129.94 L 1100.86,137.79 L 1104.45,146.00 L 1107.69,154.56 L 1110.61,163.44 L 1113.24,172.65 L 1115.59,182.15 L 1117.70,191.95 L 1119.60,202.01 L 1121.31,212.33 L 1122.86,222.88 L 1124.27,233.65 L 1125.58,244.63 L 1126.81,255.79 L 1127.99,267.11 L 1129.13,278.58 L 1130.25,290.18 L 1131.38,301.89 L 1132.54,313.69 L 1133.73,325.56 L 1134.97,337.48 L 1136.27,349.43 L 1137.63,361.40 L 1139.06,373.36 L 1140.56,385.31 L 1142.13,397.21 L 1143.76,409.05 L 1145.45,420.82 L 1147.18,432.49 L 1148.94,444.05 L 1150.71,455.49 L 1152.49,466.78 L 1154.24,477.91 L 1155.95,488.88 L 1157.59,499.65 L 1159.13,510.23 L 1160.55,520.59 L 1161.82,530.73 L 1162.91,540.63 L 1163.79,550.28 L 1164.43,559.68 L 1164.79,568.80 L 1164.86,577.65 L 1164.59,586.21 L 1163.97,594.49 L 1162.96,602.46 L 1161.53,610.13 L 1159.67,617.49 L 1157.35,624.54 L 1154.55,631.27 L 1151.25,637.68 L 1147.43,643.76 L 1143.10,649.53 L 1138.22,654.97 L 1132.80,660.08 L 1126.84,664.87 L 1120.33,669.34 L 1113.28,673.49 L 1105.70,677.31 L 1097.59,680.82 L 1088.96,684.02 L 1079.84,686.91 L 1070.24,689.50 L 1060.18,691.79 L 1049.70,693.78 L 1038.82,695.48 L 1027.56,696.90 L 1015.97,698.04 L 1004.07,698.91 L 991.92,699.51 L 979.53,699.86 L 966.96,699.96 L 954.24,699.81 L 941.42,699.42 L 928.54,698.81 L 915.65,697.97 L 902.77,696.91 L 889.96,695.65 L 877.26,694.18 L 864.70,692.51 L 852.33,690.66 L 840.18,688.63 L 828.29,686.41 L 816.69,684.03 L 805.41,681.48 L 794.49,678.77 L 783.93,675.91 L 773.78,672.90 L 764.04,669.74 L 754.73,666.44 L 745.88,663.01 L 737.48,659.44 L 729.54,655.74 L 722.07,651.92 L 715.08,647.97 L 708.54,643.90 L 702.47,639.71 L 696.85,635.40 L 691.67,630.98 L 686.91,626.43 L 682.56,621.78 L 678.61,617.00 L 675.02,612.12 L 671.78,607.12 L 668.86,602.00 L 666.23,596.77 L 663.88,591.42 L 661.77,585.95 L 659.87,580.36 L 658.16,574.66 L 656.61,568.83 L 655.20,562.89 L 653.89,556.82 L 652.66,550.62 L 651.48,544.30 L 650.34,537.85 L 649.22,531.28 L 648.09,524.57 L 646.93,517.74 L 645.74,510.77 L 644.50,503.68 L 643.20,496.45 L 641.84,489.10 L 640.41,481.61 L 638.91,474.00 L 637.34,466.25 L 635.71,458.38 L 634.02,450.38 L 632.29,442.26 L 630.53,434.03 L 628.75,425.67 L 626.98,417.20 L 625.23,408.62 L 623.52,399.94 L 621.88,391.16 L 620.34,382.29 L 618.92,373.33 L 617.65,364.29 L 616.56,355.17 L 615.68,345.99 L 615.04,336.76 L 614.68,327.48 L 614.61,318.15 L 614.88,308.80 L 615.50,299.43 L 616.51,290.06 L 617.94,280.69 L 619.80,271.33 L 622.12,262.00 L 624.92,252.71 L 628.22,243.48 L 632.03,234.31 L 636.37,225.23 L 641.25,216.23 L 646.66,207.35 L 652.63,198.59 L 659.13,189.96 L 666.18,181.49 L 673.77,173.18 L 681.88,165.06 L 690.51,157.13 L 699.63,149.42 L 709.23,141.93 L 719.29,134.68 L 729.77,127.68 L 740.65,120.96 L 751.91,114.51 L 763.50,108.37 L 775.39,102.54 L 787.55,97.03 L 799.94,91.85 L 812.51,87.03 L 825.23,82.56 L 838.04,78.47 L 850.93,74.76 L 863.82,71.44 L 876.70,68.53 L 889.51,66.02 L 902.21,63.94 L 914.77,62.28 L 927.14,61.05 L 939.29,60.26 L 951.18,59.92 L 962.78,60.02 L 974.05,60.57 L 984.98,61.58 L 995.54,63.04 L 1005.69,64.95 L 1015.43,67.33 L 1024.74,70.15 L 1033.59,73.43 L 1041.99,77.15 L 1049.93,81.32 L 1057.39,85.93 L 1064.39,90.98 L 1070.93,96.45 L 1077.00,102.34 L 1082.62,108.65 L 1087.80,115.35 L 1092.56,122.45 L 1096.91,129.94 L 1100.86,137.79 L 1104.45,146.00 L 1107.69,154.56 L 1110.61,163.44 L 1113.24,172.65 L 1115.59,182.15 L 1117.70,191.95 L 1119.60,202.01 L 1121.31,212.33 L 1122.86,222.88 L 1124.27,233.65 L 1125.58,244.63 L 1126.81,255.79 L 1127.99,267.11 L 1129.13,278.58 L 1130.25,290.18 L 1131.38,301.89 L 1132.54,313.69 L 1133.73,325.56 L 1134.97,337.48 L 1136.27,349.43 L 1137.63,361.40 L 1139.06,373.36 L 1140.56,385.31 L 1142.13,397.21 L 1143.76,409.05 L 1145.45,420.82 L 1147.18,432.49 L 1148.94,444.05 L 1150.71,455.49 L 1152.49,466.78 L 1154.24,477.91 L 1155.95,488.88 L 1157.59,499.65 L 1159.13,510.23 L 1160.55,520.59 L 1161.82,530.73 L 1162.91,540.63 L 1163.79,550.28 L 1164.43,559.68 " fill="none" stroke="#E11D48" stroke-opacity="0.14" stroke-width="1.4" stroke-linecap="round" stroke-linejoin="round"/>
<path d="M 793.71,852.91 L 790.88,850.01 L 788.11,846.92 L 785.38,843.66 L 782.70,840.23 L 780.04,836.63 L 777.41,832.86 L 774.80,828.92 L 772.20,824.82 L 769.60,820.56 L 767.00,816.14 L 764.39,811.56 L 761.77,806.83 L 759.13,801.95 L 756.46,796.93 L 753.77,791.76 L 751.04,786.45 L 748.27,781.00 L 745.46,775.42 L 742.61,769.72 L 739.72,763.89 L 736.77,757.93 L 733.78,751.87 L 730.74,745.69 L 727.65,739.40 L 724.51,733.01 L 721.32,726.52 L 718.09,719.94 L 714.81,713.28 L 711.49,706.52 L 708.14,699.69 L 704.75,692.79 L 701.33,685.82 L 697.89,678.79 L 694.43,671.70 L 690.96,664.55 L 687.48,657.36 L 684.00,650.13 L 680.53,642.86 L 677.08,635.56 L 673.65,628.24 L 670.25,620.89 L 666.89,613.53 L 663.59,606.16 L 660.34,598.79 L 657.17,591.42 L 654.07,584.05 L 651.06,576.70 L 648.15,569.37 L 645.35,562.05 L 642.66,554.77 L 640.11,547.52 L 637.69,540.30 L 635.43,533.13 L 633.32,526.01 L 631.38,518.94 L 629.61,511.93 L 628.03,504.98 L 626.65,498.10 L 625.47,491.28 L 624.50,484.55 L 623.75,477.89 L 623.22,471.32 L 622.93,464.84 L 622.88,458.45 L 623.08,452.15 L 623.52,445.95 L 624.22,439.86 L 625.18,433.88 L 626.41,428.00 L 627.90,422.24 L 629.65,416.59 L 631.68,411.07 L 633.98,405.66 L 636.55,400.38 L 639.40,395.23 L 642.51,390.20 L 645.89,385.31 L 649.54,380.55 L 653.45,375.93 L 657.62,371.44 L 662.05,367.09 L 666.73,362.88 L 671.65,358.82 L 676.81,354.89 L 682.21,351.11 L 687.83,347.47 L 693.66,343.98 L 699.70,340.63 L 705.95,337.43 L 712.38,334.37 L 719.00,331.46 L 725.78,328.70 L 732.73,326.08 L 739.82,323.61 L 747.05,321.28 L 754.41,319.09 L 761.88,317.05 L 769.45,315.15 L 777.12,313.40 L 784.86,311.78 L 792.67,310.31 L 800.54,308.97 L 808.44,307.77 L 816.38,306.70 L 824.33,305.77 L 832.29,304.97 L 840.24,304.30 L 848.18,303.76 L 856.08,303.34 L 863.95,303.06 L 871.76,302.89 L 879.51,302.84 L 887.19,302.91 L 894.79,303.10 L 902.31,303.40 L 909.72,303.82 L 917.02,304.34 L 924.21,304.97 L 931.28,305.70 L 938.22,306.53 L 945.03,307.47 L 951.69,308.50 L 958.21,309.62 L 964.58,310.84 L 970.80,312.15 L 976.87,313.54 L 982.77,315.01 L 988.52,316.57 L 994.10,318.21 L 999.53,319.93 L 1004.79,321.72 L 1009.89,323.58 L 1014.83,325.51 L 1019.62,327.51 L 1024.25,329.57 L 1028.72,331.70 L 1033.05,333.88 L 1037.23,336.13 L 1041.28,338.43 L 1045.18,340.79 L 1048.96,343.20 L 1052.61,345.65 L 1056.15,348.16 L 1059.57,350.72 L 1062.88,353.32 L 1066.10,355.96 L 1069.22,358.65 L 1072.26,361.37 L 1075.22,364.14 L 1078.11,366.94 L 1080.94,369.78 L 1083.72,372.65 L 1086.44,375.56 L 1089.13,378.50 L 1091.79,381.48 L 1094.42,384.48 L 1097.03,387.52 L 1099.63,390.58 L 1102.23,393.68 L 1104.83,396.80 L 1107.43,399.95 L 1110.06,403.13 L 1112.70,406.33 L 1115.36,409.56 L 1118.06,412.82 L 1120.79,416.10 L 1123.56,419.41 L 1126.36,422.75 L 1129.21,426.11 L 1132.11,429.50 L 1135.05,432.92 L 1138.05,436.36 L 1141.09,439.83 L 1144.18,443.32 L 1147.32,446.84 L 1150.51,450.40 L 1153.74,453.97 L 1157.02,457.58 L 1160.33,461.22 L 1163.69,464.88 L 1167.08,468.58 L 1170.49,472.30 L 1173.94,476.06 L 1177.40,479.85 L 1180.87,483.67 L 1184.35,487.52 L 1187.83,491.40 L 1191.30,495.32 L 1194.75,499.27 L 1198.18,503.26 L 1201.58,507.28 L 1204.93,511.33 L 1208.24,515.43 L 1211.48,519.55 L 1214.66,523.72 L 1217.76,527.92 L 1220.77,532.15 L 1223.68,536.43 L 1226.48,540.74 L 1229.16,545.09 L 1231.72,549.47 L 1234.13,553.90 L 1236.40,558.35 L 1238.51,562.85 L 1240.45,567.38 L 1242.22,571.95 L 1243.79,576.56 L 1245.18,581.20 L 1246.36,585.88 L 1247.33,590.59 L 1248.08,595.33 L 1248.60,600.11 L 1248.89,604.91 L 1248.94,609.75 L 1248.75,614.62 L 1248.30,619.52 L 1247.60,624.44 L 1246.64,629.39 L 1245.42,634.37 L 1243.93,639.36 L 1242.17,644.38 L 1240.14,649.42 L 1237.84,654.47 L 1235.27,659.54 L 1232.43,664.63 L 1229.32,669.72 L 1225.93,674.82 L 1222.29,679.93 L 1218.37,685.05 L 1214.20,690.16 L 1209.78,695.28 L 1205.10,700.39 L 1200.17,705.49 L 1195.01,710.58 L 1189.62,715.66 L 1184.00,720.73 L 1178.17,725.77 L 1172.12,730.79 L 1165.88,735.79 L 1159.44,740.76 L 1152.83,745.70 L 1146.04,750.60 L 1139.10,755.46 L 1132.01,760.28 L 1124.78,765.05 L 1117.42,769.77 L 1109.95,774.44 L 1102.37,779.05 L 1094.71,783.59 L 1086.96,788.07 L 1079.15,792.49 L 1071.29,796.83 L 1063.38,801.09 L 1055.45,805.27 L 1047.50,809.37 L 1039.54,813.37 L 1031.59,817.29 L 1023.65,821.11 L 1015.75,824.82 L 1007.88,828.44 L 1000.07,831.94 L 992.31,835.34 L 984.63,838.62 L 977.03,841.78 L 969.52,844.81 L 962.11,847.73 L 954.80,850.51 L 947.61,853.16 L 940.55,855.67 L 933.61,858.04 L 926.80,860.27 L 920.13,862.36 L 913.61,864.30 L 907.24,866.08 L 901.02,867.71 L 894.96,869.18 L 889.05,870.50 L 883.31,871.65 L 877.72,872.64 L 872.30,873.46 L 867.04,874.11 L 861.94,874.60 L 856.99,874.91 L 852.21,875.04 L 847.58,875.01 L 843.10,874.79 L 838.78,874.40 L 834.59,873.83 L 830.55,873.08 L 826.64,872.15 L 822.87,871.04 L 819.21,869.75 L 815.68,868.28 L 812.26,866.62 L 808.95,864.79 L 805.73,862.77 L 802.61,860.58 L 799.57,858.20 L 796.61,855.65 L 793.71,852.91 L 790.88,850.01 L 788.11,846.92 L 785.38,843.66 L 782.70,840.23 L 780.04,836.63 L 777.41,832.86 L 774.80,828.92 L 772.20,824.82 L 769.60,820.56 L 767.00,816.14 L 764.39,811.56 L 761.77,806.83 L 759.13,801.95 L 756.46,796.93 L 753.77,791.76 L 751.04,786.45 L 748.27,781.00 L 745.46,775.42 L 742.61,769.72 L 739.72,763.89 L 736.77,757.93 L 733.78,751.87 L 730.74,745.69 L 727.65,739.40 L 724.51,733.01 L 721.32,726.52 L 718.09,719.94 L 714.81,713.28 L 711.49,706.52 L 708.14,699.69 L 704.75,692.79 L 701.33,685.82 L 697.89,678.79 L 694.43,671.70 L 690.96,664.55 L 687.48,657.36 L 684.00,650.13 L 680.53,642.86 L 677.08,635.56 L 673.65,628.24 L 670.25,620.89 L 666.89,613.53 L 663.59,606.16 L 660.34,598.79 L 657.17,591.42 L 654.07,584.05 L 651.06,576.70 L 648.15,569.37 L 645.35,562.05 L 642.66,554.77 L 640.11,547.52 L 637.69,540.30 L 635.43,533.13 L 633.32,526.01 L 631.38,518.94 L 629.61,511.93 L 628.03,504.98 L 626.65,498.10 L 625.47,491.28 L 624.50,484.55 L 623.75,477.89 L 623.22,471.32 L 622.93,464.84 L 622.88,458.45 L 623.08,452.15 L 623.52,445.95 L 624.22,439.86 L 625.18,433.88 L 626.41,428.00 L 627.90,422.24 L 629.65,416.59 L 631.68,411.07 L 633.98,405.66 L 636.55,400.38 L 639.40,395.23 L 642.51,390.20 L 645.89,385.31 L 649.54,380.55 L 653.45,375.93 L 657.62,371.44 L 662.05,367.09 L 666.73,362.88 L 671.65,358.82 L 676.81,354.89 L 682.21,351.11 L 687.83,347.47 L 693.66,343.98 L 699.70,340.63 L 705.95,337.43 L 712.38,334.37 L 719.00,331.46 L 725.78,328.70 L 732.73,326.08 L 739.82,323.61 L 747.05,321.28 L 754.41,319.09 L 761.88,317.05 L 769.45,315.15 L 777.12,313.40 L 784.86,311.78 L 792.67,310.31 L 800.54,308.97 L 808.44,307.77 L 816.38,306.70 L 824.33,305.77 L 832.29,304.97 L 840.24,304.30 L 848.18,303.76 L 856.08,303.34 L 863.95,303.06 L 871.76,302.89 L 879.51,302.84 L 887.19,302.91 L 894.79,303.10 L 902.31,303.40 L 909.72,303.82 L 917.02,304.34 L 924.21,304.97 L 931.28,305.70 L 938.22,306.53 L 945.03,307.47 L 951.69,308.50 L 958.21,309.62 L 964.58,310.84 L 970.80,312.15 L 976.87,313.54 L 982.77,315.01 L 988.52,316.57 L 994.10,318.21 L 999.53,319.93 L 1004.79,321.72 L 1009.89,323.58 L 1014.83,325.51 L 1019.62,327.51 L 1024.25,329.57 L 1028.72,331.70 L 1033.05,333.88 L 1037.23,336.13 L 1041.28,338.43 L 1045.18,340.79 L 1048.96,343.20 L 1052.61,345.65 L 1056.15,348.16 L 1059.57,350.72 L 1062.88,353.32 L 1066.10,355.96 L 1069.22,358.65 L 1072.26,361.37 L 1075.22,364.14 L 1078.11,366.94 L 1080.94,369.78 L 1083.72,372.65 L 1086.44,375.56 L 1089.13,378.50 L 1091.79,381.48 L 1094.42,384.48 L 1097.03,387.52 L 1099.63,390.58 L 1102.23,393.68 L 1104.83,396.80 L 1107.43,399.95 L 1110.06,403.13 L 1112.70,406.33 L 1115.36,409.56 L 1118.06,412.82 L 1120.79,416.10 L 1123.56,419.41 L 1126.36,422.75 L 1129.21,426.11 L 1132.11,429.50 L 1135.05,432.92 L 1138.05,436.36 L 1141.09,439.83 L 1144.18,443.32 L 1147.32,446.84 L 1150.51,450.40 L 1153.74,453.97 L 1157.02,457.58 L 1160.33,461.22 L 1163.69,464.88 L 1167.08,468.58 L 1170.49,472.30 L 1173.94,476.06 L 1177.40,479.85 L 1180.87,483.67 L 1184.35,487.52 L 1187.83,491.40 L 1191.30,495.32 L 1194.75,499.27 L 1198.18,503.26 L 1201.58,507.28 L 1204.93,511.33 L 1208.24,515.43 L 1211.48,519.55 L 1214.66,523.72 L 1217.76,527.92 L 1220.77,532.15 L 1223.68,536.43 L 1226.48,540.74 L 1229.16,545.09 L 1231.72,549.47 L 1234.13,553.90 L 1236.40,558.35 L 1238.51,562.85 L 1240.45,567.38 L 1242.22,571.95 L 1243.79,576.56 L 1245.18,581.20 L 1246.36,585.88 L 1247.33,590.59 L 1248.08,595.33 L 1248.60,600.11 L 1248.89,604.91 L 1248.94,609.75 L 1248.75,614.62 L 1248.30,619.52 L 1247.60,624.44 L 1246.64,629.39 L 1245.42,634.37 L 1243.93,639.36 L 1242.17,644.38 L 1240.14,649.42 L 1237.84,654.47 L 1235.27,659.54 L 1232.43,664.63 L 1229.32,669.72 L 1225.93,674.82 L 1222.29,679.93 L 1218.37,685.05 L 1214.20,690.16 L 1209.78,695.28 L 1205.10,700.39 L 1200.17,705.49 L 1195.01,710.58 L 1189.62,715.66 L 1184.00,720.73 L 1178.17,725.77 L 1172.12,730.79 L 1165.88,735.79 L 1159.44,740.76 L 1152.83,745.70 L 1146.04,750.60 L 1139.10,755.46 L 1132.01,760.28 L 1124.78,765.05 L 1117.42,769.77 L 1109.95,774.44 L 1102.37,779.05 L 1094.71,783.59 L 1086.96,788.07 L 1079.15,792.49 L 1071.29,796.83 L 1063.38,801.09 L 1055.45,805.27 L 1047.50,809.37 L 1039.54,813.37 L 1031.59,817.29 L 1023.65,821.11 L 1015.75,824.82 L 1007.88,828.44 L 1000.07,831.94 L 992.31,835.34 L 984.63,838.62 L 977.03,841.78 L 969.52,844.81 L 962.11,847.73 L 954.80,850.51 L 947.61,853.16 L 940.55,855.67 L 933.61,858.04 L 926.80,860.27 L 920.13,862.36 L 913.61,864.30 L 907.24,866.08 L 901.02,867.71 L 894.96,869.18 L 889.05,870.50 L 883.31,871.65 L 877.72,872.64 L 872.30,873.46 L 867.04,874.11 L 861.94,874.60 L 856.99,874.91 L 852.21,875.04 L 847.58,875.01 L 843.10,874.79 L 838.78,874.40 L 834.59,873.83 L 830.55,873.08 L 826.64,872.15 L 822.87,871.04 L 819.21,869.75 L 815.68,868.28 L 812.26,866.62 L 808.95,864.79 L 805.73,862.77 L 802.61,860.58 L 799.57,858.20 L 796.61,855.65 L 793.71,852.91 " fill="none" stroke="#E11D48" stroke-opacity="0.16" stroke-width="1.5999999999999999" stroke-linecap="round" stroke-linejoin="round"/>
<path d="M 577.15,500.85 L 574.22,494.84 L 571.60,488.56 L 569.24,482.02 L 567.13,475.21 L 565.24,468.15 L 563.54,460.85 L 562.01,453.32 L 560.62,445.57 L 559.36,437.60 L 558.20,429.44 L 557.13,421.08 L 556.13,412.56 L 555.19,403.87 L 554.30,395.03 L 553.45,386.07 L 552.63,376.98 L 551.85,367.79 L 551.10,358.51 L 550.39,349.17 L 549.72,339.76 L 549.10,330.32 L 548.54,320.85 L 548.06,311.38 L 547.67,301.92 L 547.39,292.48 L 547.24,283.09 L 547.25,273.76 L 547.43,264.50 L 547.81,255.34 L 548.41,246.29 L 549.27,237.36 L 550.42,228.58 L 551.87,219.95 L 553.67,211.50 L 555.83,203.23 L 558.38,195.17 L 561.36,187.31 L 564.78,179.69 L 568.68,172.31 L 573.06,165.19 L 577.96,158.32 L 583.39,151.74 L 589.37,145.44 L 595.91,139.44 L 603.02,133.74 L 610.71,128.35 L 618.99,123.29 L 627.85,118.55 L 637.30,114.14 L 647.32,110.08 L 657.91,106.35 L 669.07,102.97 L 680.76,99.94 L 692.98,97.26 L 705.70,94.93 L 718.90,92.95 L 732.56,91.32 L 746.63,90.04 L 761.09,89.11 L 775.89,88.52 L 791.02,88.28 L 806.41,88.37 L 822.04,88.79 L 837.86,89.53 L 853.82,90.60 L 869.88,91.98 L 886.00,93.67 L 902.12,95.65 L 918.21,97.92 L 934.22,100.47 L 950.10,103.28 L 965.82,106.36 L 981.32,109.69 L 996.57,113.26 L 1011.52,117.05 L 1026.15,121.07 L 1040.42,125.29 L 1054.29,129.70 L 1067.74,134.29 L 1080.74,139.06 L 1093.27,143.98 L 1105.30,149.05 L 1116.82,154.25 L 1127.82,159.58 L 1138.29,165.02 L 1148.21,170.56 L 1157.58,176.19 L 1166.41,181.89 L 1174.70,187.66 L 1182.45,193.49 L 1189.67,199.36 L 1196.38,205.27 L 1202.58,211.21 L 1208.29,217.16 L 1213.54,223.12 L 1218.34,229.08 L 1222.71,235.03 L 1226.68,240.97 L 1230.28,246.88 L 1233.53,252.76 L 1236.45,258.61 L 1239.07,264.41 L 1241.43,270.18 L 1243.54,275.89 L 1245.43,281.54 L 1247.13,287.14 L 1248.66,292.67 L 1250.05,298.15 L 1251.31,303.55 L 1252.47,308.89 L 1253.54,314.17 L 1254.54,319.37 L 1255.48,324.50 L 1256.37,329.57 L 1257.22,334.56 L 1258.04,339.49 L 1258.82,344.36 L 1259.57,349.16 L 1260.28,353.89 L 1260.95,358.57 L 1261.57,363.19 L 1262.13,367.75 L 1262.61,372.26 L 1263.00,376.72 L 1263.28,381.13 L 1263.43,385.50 L 1263.42,389.83 L 1263.25,394.12 L 1262.87,398.37 L 1262.26,402.60 L 1261.40,406.80 L 1260.25,410.97 L 1258.80,415.12 L 1257.00,419.24 L 1254.84,423.35 L 1252.29,427.45 L 1249.31,431.53 L 1245.89,435.60 L 1241.99,439.65 L 1237.61,443.70 L 1232.71,447.74 L 1227.28,451.77 L 1221.30,455.78 L 1214.76,459.79 L 1207.65,463.79 L 1199.96,467.77 L 1191.68,471.74 L 1182.82,475.69 L 1173.38,479.62 L 1163.35,483.53 L 1152.76,487.42 L 1141.61,491.27 L 1129.91,495.09 L 1117.69,498.86 L 1104.97,502.60 L 1091.77,506.28 L 1078.12,509.90 L 1064.04,513.46 L 1049.59,516.95 L 1034.78,520.36 L 1019.65,523.69 L 1004.26,526.93 L 988.63,530.06 L 972.81,533.08 L 956.85,535.98 L 940.79,538.76 L 924.67,541.40 L 908.55,543.90 L 892.46,546.24 L 876.45,548.42 L 860.57,550.43 L 844.85,552.25 L 829.35,553.89 L 814.10,555.33 L 799.15,556.55 L 784.52,557.56 L 770.25,558.35 L 756.38,558.90 L 742.93,559.21 L 729.93,559.27 L 717.40,559.08 L 705.37,558.62 L 693.85,557.90 L 682.85,556.90 L 672.39,555.61 L 662.46,554.04 L 653.09,552.19 L 644.26,550.04 L 635.97,547.59 L 628.22,544.84 L 621.00,541.79 L 614.29,538.44 L 608.09,534.79 L 602.38,530.83 L 597.13,526.57 L 592.33,522.02 L 587.96,517.16 L 583.99,512.01 L 580.39,506.57 L 577.15,500.85 L 574.22,494.84 L 571.60,488.56 L 569.24,482.02 L 567.13,475.21 L 565.24,468.15 L 563.54,460.85 L 562.01,453.32 L 560.62,445.57 L 559.36,437.60 L 558.20,429.44 L 557.13,421.08 L 556.13,412.56 L 555.19,403.87 L 554.30,395.03 L 553.45,386.07 L 552.63,376.98 L 551.85,367.79 L 551.10,358.51 L 550.39,349.17 L 549.72,339.76 L 549.10,330.32 L 548.54,320.85 L 548.06,311.38 L 547.67,301.92 L 547.39,292.48 L 547.24,283.09 L 547.25,273.76 L 547.43,264.50 L 547.81,255.34 L 548.41,246.29 L 549.27,237.36 L 550.42,228.58 L 551.87,219.95 L 553.67,211.50 L 555.83,203.23 L 558.38,195.17 L 561.36,187.31 L 564.78,179.69 L 568.68,172.31 L 573.06,165.19 L 577.96,158.32 L 583.39,151.74 L 589.37,145.44 L 595.91,139.44 L 603.02,133.74 L 610.71,128.35 L 618.99,123.29 L 627.85,118.55 L 637.30,114.14 L 647.32,110.08 L 657.91,106.35 L 669.07,102.97 L 680.76,99.94 L 692.98,97.26 L 705.70,94.93 L 718.90,92.95 L 732.56,91.32 L 746.63,90.04 L 761.09,89.11 L 775.89,88.52 L 791.02,88.28 L 806.41,88.37 L 822.04,88.79 L 837.86,89.53 L 853.82,90.60 L 869.88,91.98 L 886.00,93.67 L 902.12,95.65 L 918.21,97.92 L 934.22,100.47 L 950.10,103.28 L 965.82,106.36 L 981.32,109.69 L 996.57,113.26 L 1011.52,117.05 L 1026.15,121.07 L 1040.42,125.29 L 1054.29,129.70 L 1067.74,134.29 L 1080.74,139.06 L 1093.27,143.98 L 1105.30,149.05 L 1116.82,154.25 L 1127.82,159.58 L 1138.29,165.02 L 1148.21,170.56 L 1157.58,176.19 L 1166.41,181.89 L 1174.70,187.66 L 1182.45,193.49 L 1189.67,199.36 L 1196.38,205.27 L 1202.58,211.21 L 1208.29,217.16 L 1213.54,223.12 L 1218.34,229.08 L 1222.71,235.03 L 1226.68,240.97 L 1230.28,246.88 L 1233.53,252.76 L 1236.45,258.61 L 1239.07,264.41 L 1241.43,270.18 L 1243.54,275.89 L 1245.43,281.54 L 1247.13,287.14 L 1248.66,292.67 L 1250.05,298.15 L 1251.31,303.55 L 1252.47,308.89 L 1253.54,314.17 L 1254.54,319.37 L 1255.48,324.50 L 1256.37,329.57 L 1257.22,334.56 L 1258.04,339.49 L 1258.82,344.36 L 1259.57,349.16 L 1260.28,353.89 L 1260.95,358.57 L 1261.57,363.19 L 1262.13,367.75 L 1262.61,372.26 L 1263.00,376.72 L 1263.28,381.13 L 1263.43,385.50 L 1263.42,389.83 L 1263.25,394.12 L 1262.87,398.37 L 1262.26,402.60 L 1261.40,406.80 L 1260.25,410.97 L 1258.80,415.12 L 1257.00,419.24 L 1254.84,423.35 L 1252.29,427.45 L 1249.31,431.53 L 1245.89,435.60 L 1241.99,439.65 L 1237.61,443.70 L 1232.71,447.74 L 1227.28,451.77 L 1221.30,455.78 L 1214.76,459.79 L 1207.65,463.79 L 1199.96,467.77 L 1191.68,471.74 L 1182.82,475.69 L 1173.38,479.62 L 1163.35,483.53 L 1152.76,487.42 L 1141.61,491.27 L 1129.91,495.09 L 1117.69,498.86 L 1104.97,502.60 L 1091.77,506.28 L 1078.12,509.90 L 1064.04,513.46 L 1049.59,516.95 L 1034.78,520.36 L 1019.65,523.69 L 1004.26,526.93 L 988.63,530.06 L 972.81,533.08 L 956.85,535.98 L 940.79,538.76 L 924.67,541.40 L 908.55,543.90 L 892.46,546.24 L 876.45,548.42 L 860.57,550.43 L 844.85,552.25 L 829.35,553.89 L 814.10,555.33 L 799.15,556.55 L 784.52,557.56 L 770.25,558.35 L 756.38,558.90 L 742.93,559.21 L 729.93,559.27 L 717.40,559.08 L 705.37,558.62 L 693.85,557.90 L 682.85,556.90 L 672.39,555.61 L 662.46,554.04 L 653.09,552.19 L 644.26,550.04 L 635.97,547.59 L 628.22,544.84 L 621.00,541.79 L 614.29,538.44 L 608.09,534.79 L 602.38,530.83 L 597.13,526.57 L 592.33,522.02 L 587.96,517.16 L 583.99,512.01 L 580.39,506.57 L 577.15,500.85 L 574.22,494.84 L 571.60,488.56 L 569.24,482.02 L 567.13,475.21 L 565.24,468.15 L 563.54,460.85 L 562.01,453.32 L 560.62,445.57 L 559.36,437.60 L 558.20,429.44 L 557.13,421.08 L 556.13,412.56 L 555.19,403.87 L 554.30,395.03 L 553.45,386.07 L 552.63,376.98 L 551.85,367.79 L 551.10,358.51 L 550.39,349.17 L 549.72,339.76 L 549.10,330.32 L 548.54,320.85 L 548.06,311.38 L 547.67,301.92 L 547.39,292.48 L 547.24,283.09 L 547.25,273.76 L 547.43,264.50 L 547.81,255.34 L 548.41,246.29 L 549.27,237.36 L 550.42,228.58 L 551.87,219.95 L 553.67,211.50 L 555.83,203.23 L 558.38,195.17 L 561.36,187.31 L 564.78,179.69 L 568.68,172.31 L 573.06,165.19 L 577.96,158.32 L 583.39,151.74 L 589.37,145.44 L 595.91,139.44 L 603.02,133.74 L 610.71,128.35 L 618.99,123.29 L 627.85,118.55 L 637.30,114.14 L 647.32,110.08 L 657.91,106.35 L 669.07,102.97 L 680.76,99.94 L 692.98,97.26 L 705.70,94.93 L 718.90,92.95 L 732.56,91.32 L 746.63,90.04 L 761.09,89.11 L 775.89,88.52 L 791.02,88.28 L 806.41,88.37 L 822.04,88.79 L 837.86,89.53 L 853.82,90.60 L 869.88,91.98 L 886.00,93.67 L 902.12,95.65 L 918.21,97.92 L 934.22,100.47 L 950.10,103.28 L 965.82,106.36 L 981.32,109.69 L 996.57,113.26 L 1011.52,117.05 L 1026.15,121.07 L 1040.42,125.29 L 1054.29,129.70 L 1067.74,134.29 L 1080.74,139.06 L 1093.27,143.98 L 1105.30,149.05 L 1116.82,154.25 L 1127.82,159.58 L 1138.29,165.02 L 1148.21,170.56 L 1157.58,176.19 L 1166.41,181.89 L 1174.70,187.66 L 1182.45,193.49 L 1189.67,199.36 L 1196.38,205.27 L 1202.58,211.21 L 1208.29,217.16 L 1213.54,223.12 L 1218.34,229.08 L 1222.71,235.03 L 1226.68,240.97 L 1230.28,246.88 L 1233.53,252.76 L 1236.45,258.61 L 1239.07,264.41 L 1241.43,270.18 L 1243.54,275.89 L 1245.43,281.54 L 1247.13,287.14 L 1248.66,292.67 L 1250.05,298.15 L 1251.31,303.55 L 1252.47,308.89 L 1253.54,314.17 L 1254.54,319.37 L 1255.48,324.50 L 1256.37,329.57 L 1257.22,334.56 L 1258.04,339.49 L 1258.82,344.36 L 1259.57,349.16 L 1260.28,353.89 L 1260.95,358.57 L 1261.57,363.19 L 1262.13,367.75 L 1262.61,372.26 L 1263.00,376.72 L 1263.28,381.13 L 1263.43,385.50 L 1263.42,389.83 L 1263.25,394.12 L 1262.87,398.37 L 1262.26,402.60 L 1261.40,406.80 L 1260.25,410.97 L 1258.80,415.12 L 1257.00,419.24 L 1254.84,423.35 L 1252.29,427.45 L 1249.31,431.53 L 1245.89,435.60 L 1241.99,439.65 L 1237.61,443.70 L 1232.71,447.74 L 1227.28,451.77 L 1221.30,455.78 L 1214.76,459.79 L 1207.65,463.79 L 1199.96,467.77 L 1191.68,471.74 L 1182.82,475.69 L 1173.38,479.62 L 1163.35,483.53 L 1152.76,487.42 L 1141.61,491.27 L 1129.91,495.09 L 1117.69,498.86 L 1104.97,502.60 L 1091.77,506.28 L 1078.12,509.90 L 1064.04,513.46 L 1049.59,516.95 L 1034.78,520.36 L 1019.65,523.69 L 1004.26,526.93 L 988.63,530.06 L 972.81,533.08 L 956.85,535.98 L 940.79,538.76 L 924.67,541.40 L 908.55,543.90 L 892.46,546.24 L 876.45,548.42 L 860.57,550.43 L 844.85,552.25 L 829.35,553.89 L 814.10,555.33 L 799.15,556.55 L 784.52,557.56 L 770.25,558.35 L 756.38,558.90 L 742.93,559.21 L 729.93,559.27 L 717.40,559.08 L 705.37,558.62 L 693.85,557.90 L 682.85,556.90 L 672.39,555.61 L 662.46,554.04 L 653.09,552.19 L 644.26,550.04 L 635.97,547.59 L 628.22,544.84 L 621.00,541.79 L 614.29,538.44 L 608.09,534.79 L 602.38,530.83 L 597.13,526.57 L 592.33,522.02 L 587.96,517.16 L 583.99,512.01 L 580.39,506.57 L 577.15,500.85 " fill="none" stroke="#E11D48" stroke-opacity="0.18000000000000002" stroke-width="1.7999999999999998" stroke-linecap="round" stroke-linejoin="round"/>
<path d="M 675.87,754.42 L 672.72,753.63 L 669.57,752.63 L 666.43,751.43 L 663.27,750.03 L 660.10,748.42 L 656.90,746.61 L 653.67,744.61 L 650.41,742.40 L 647.10,740.00 L 643.74,737.40 L 640.33,734.61 L 636.85,731.63 L 633.31,728.46 L 629.70,725.11 L 626.01,721.57 L 622.24,717.85 L 618.40,713.95 L 614.46,709.88 L 610.44,705.64 L 606.33,701.23 L 602.13,696.66 L 597.84,691.92 L 593.46,687.03 L 588.99,681.99 L 584.42,676.80 L 579.78,671.46 L 575.04,665.98 L 570.23,660.37 L 565.33,654.62 L 560.36,648.75 L 555.32,642.76 L 550.22,636.64 L 545.05,630.42 L 539.83,624.09 L 534.57,617.65 L 529.27,611.12 L 523.94,604.50 L 518.58,597.78 L 513.21,590.99 L 507.84,584.11 L 502.46,577.17 L 497.11,570.16 L 491.77,563.08 L 486.47,555.95 L 481.21,548.77 L 476.01,541.54 L 470.88,534.28 L 465.82,526.97 L 460.84,519.64 L 455.97,512.28 L 451.20,504.90 L 446.56,497.51 L 442.04,490.11 L 437.67,482.70 L 433.45,475.30 L 429.39,467.90 L 425.51,460.50 L 421.80,453.13 L 418.29,445.77 L 414.98,438.44 L 411.88,431.14 L 409.00,423.87 L 406.34,416.64 L 403.92,409.45 L 401.73,402.30 L 399.79,395.21 L 398.11,388.17 L 396.68,381.19 L 395.51,374.27 L 394.61,367.41 L 393.98,360.63 L 393.63,353.91 L 393.54,347.28 L 393.74,340.72 L 394.21,334.24 L 394.95,327.85 L 395.97,321.54 L 397.27,315.33 L 398.84,309.21 L 400.68,303.18 L 402.78,297.25 L 405.15,291.42 L 407.78,285.69 L 410.66,280.06 L 413.79,274.54 L 417.16,269.12 L 420.76,263.81 L 424.59,258.61 L 428.64,253.52 L 432.90,248.54 L 437.36,243.68 L 442.02,238.92 L 446.85,234.28 L 451.86,229.76 L 457.04,225.35 L 462.36,221.05 L 467.83,216.87 L 473.42,212.80 L 479.14,208.85 L 484.96,205.02 L 490.88,201.30 L 496.89,197.69 L 502.97,194.20 L 509.11,190.83 L 515.30,187.56 L 521.53,184.41 L 527.79,181.37 L 534.07,178.44 L 540.35,175.62 L 546.64,172.92 L 552.91,170.31 L 559.15,167.82 L 565.37,165.43 L 571.54,163.15 L 577.66,160.97 L 583.73,158.90 L 589.73,156.92 L 595.66,155.05 L 601.51,153.27 L 607.27,151.59 L 612.95,150.01 L 618.52,148.52 L 624.00,147.12 L 629.38,145.82 L 634.64,144.60 L 639.80,143.48 L 644.85,142.44 L 649.78,141.49 L 654.60,140.62 L 659.30,139.83 L 663.90,139.13 L 668.38,138.51 L 672.75,137.97 L 677.01,137.51 L 681.16,137.12 L 685.21,136.81 L 689.16,136.57 L 693.02,136.41 L 696.78,136.32 L 700.46,136.31 L 704.06,136.36 L 707.58,136.48 L 711.04,136.67 L 714.43,136.93 L 717.77,137.26 L 721.05,137.66 L 724.30,138.12 L 727.51,138.64 L 730.69,139.24 L 733.86,139.89 L 737.01,140.61 L 740.15,141.40 L 743.30,142.25 L 746.45,143.16 L 749.63,144.14 L 752.82,145.18 L 756.05,146.29 L 759.32,147.46 L 762.62,148.69 L 765.98,149.99 L 769.40,151.36 L 772.87,152.78 L 776.41,154.28 L 780.03,155.84 L 783.71,157.46 L 787.48,159.16 L 791.33,160.92 L 795.26,162.75 L 799.28,164.64 L 803.39,166.61 L 807.59,168.65 L 811.88,170.76 L 816.27,172.94 L 820.74,175.19 L 825.30,177.52 L 829.95,179.92 L 834.68,182.39 L 839.50,184.95 L 844.39,187.57 L 849.36,190.28 L 854.40,193.07 L 859.51,195.93 L 864.67,198.88 L 869.89,201.91 L 875.15,205.02 L 880.45,208.21 L 885.79,211.49 L 891.14,214.85 L 896.51,218.30 L 901.89,221.84 L 907.26,225.46 L 912.62,229.16 L 917.95,232.96 L 923.25,236.85 L 928.51,240.82 L 933.71,244.88 L 938.85,249.03 L 943.91,253.28 L 948.88,257.61 L 953.75,262.03 L 958.52,266.54 L 963.17,271.14 L 967.68,275.83 L 972.05,280.61 L 976.27,285.48 L 980.33,290.44 L 984.22,295.49 L 987.92,300.62 L 991.43,305.84 L 994.74,311.15 L 997.84,316.54 L 1000.73,322.01 L 1003.39,327.57 L 1005.81,333.21 L 1007.99,338.93 L 1009.93,344.72 L 1011.62,350.59 L 1013.04,356.54 L 1014.21,362.56 L 1015.11,368.65 L 1015.74,374.80 L 1016.10,381.03 L 1016.18,387.31 L 1015.99,393.66 L 1015.52,400.07 L 1014.77,406.53 L 1013.75,413.05 L 1012.46,419.61 L 1010.89,426.23 L 1009.05,432.88 L 1006.94,439.58 L 1004.57,446.31 L 1001.95,453.08 L 999.07,459.87 L 995.94,466.69 L 992.57,473.54 L 988.96,480.40 L 985.13,487.27 L 981.08,494.16 L 976.82,501.05 L 972.36,507.94 L 967.71,514.83 L 962.87,521.71 L 957.86,528.58 L 952.69,535.43 L 947.36,542.27 L 941.90,549.07 L 936.30,555.85 L 930.58,562.59 L 924.76,569.29 L 918.84,575.95 L 912.84,582.55 L 906.76,589.11 L 900.62,595.60 L 894.43,602.03 L 888.19,608.39 L 881.93,614.67 L 875.66,620.88 L 869.37,627.00 L 863.09,633.03 L 856.82,638.97 L 850.57,644.82 L 844.36,650.55 L 838.18,656.18 L 832.06,661.70 L 825.99,667.10 L 819.99,672.38 L 814.07,677.53 L 808.22,682.56 L 802.45,687.44 L 796.78,692.19 L 791.20,696.80 L 785.72,701.25 L 780.35,705.56 L 775.08,709.71 L 769.92,713.70 L 764.88,717.53 L 759.94,721.19 L 755.13,724.69 L 750.42,728.01 L 745.83,731.15 L 741.35,734.12 L 736.98,736.90 L 732.72,739.50 L 728.57,741.91 L 724.51,744.13 L 720.56,746.17 L 716.71,748.00 L 712.94,749.64 L 709.26,751.09 L 705.67,752.33 L 702.14,753.38 L 698.69,754.22 L 695.30,754.86 L 691.96,755.30 L 688.67,755.53 L 685.43,755.56 L 682.22,755.39 L 679.03,755.01 L 675.87,754.42 L 672.72,753.63 L 669.57,752.63 L 666.43,751.43 L 663.27,750.03 L 660.10,748.42 L 656.90,746.61 L 653.67,744.61 L 650.41,742.40 L 647.10,740.00 L 643.74,737.40 L 640.33,734.61 L 636.85,731.63 L 633.31,728.46 L 629.70,725.11 L 626.01,721.57 L 622.24,717.85 L 618.40,713.95 L 614.46,709.88 L 610.44,705.64 L 606.33,701.23 L 602.13,696.66 L 597.84,691.92 L 593.46,687.03 L 588.99,681.99 L 584.42,676.80 L 579.78,671.46 L 575.04,665.98 L 570.23,660.37 L 565.33,654.62 L 560.36,648.75 L 555.32,642.76 L 550.22,636.64 L 545.05,630.42 L 539.83,624.09 L 534.57,617.65 L 529.27,611.12 L 523.94,604.50 L 518.58,597.78 L 513.21,590.99 L 507.84,584.11 L 502.46,577.17 L 497.11,570.16 L 491.77,563.08 L 486.47,555.95 L 481.21,548.77 L 476.01,541.54 L 470.88,534.28 L 465.82,526.97 L 460.84,519.64 L 455.97,512.28 L 451.20,504.90 L 446.56,497.51 L 442.04,490.11 L 437.67,482.70 L 433.45,475.30 L 429.39,467.90 L 425.51,460.50 L 421.80,453.13 L 418.29,445.77 L 414.98,438.44 L 411.88,431.14 L 409.00,423.87 L 406.34,416.64 L 403.92,409.45 L 401.73,402.30 L 399.79,395.21 L 398.11,388.17 L 396.68,381.19 L 395.51,374.27 L 394.61,367.41 L 393.98,360.63 L 393.63,353.91 L 393.54,347.28 L 393.74,340.72 L 394.21,334.24 L 394.95,327.85 L 395.97,321.54 L 397.27,315.33 L 398.84,309.21 L 400.68,303.18 L 402.78,297.25 L 405.15,291.42 L 407.78,285.69 L 410.66,280.06 L 413.79,274.54 L 417.16,269.12 L 420.76,263.81 L 424.59,258.61 L 428.64,253.52 L 432.90,248.54 L 437.36,243.68 L 442.02,238.92 L 446.85,234.28 L 451.86,229.76 L 457.04,225.35 L 462.36,221.05 L 467.83,216.87 L 473.42,212.80 L 479.14,208.85 L 484.96,205.02 L 490.88,201.30 L 496.89,197.69 L 502.97,194.20 L 509.11,190.83 L 515.30,187.56 L 521.53,184.41 L 527.79,181.37 L 534.07,178.44 L 540.35,175.62 L 546.64,172.92 L 552.91,170.31 L 559.15,167.82 L 565.37,165.43 L 571.54,163.15 L 577.66,160.97 L 583.73,158.90 L 589.73,156.92 L 595.66,155.05 L 601.51,153.27 L 607.27,151.59 L 612.95,150.01 L 618.52,148.52 L 624.00,147.12 L 629.38,145.82 L 634.64,144.60 L 639.80,143.48 L 644.85,142.44 L 649.78,141.49 L 654.60,140.62 L 659.30,139.83 L 663.90,139.13 L 668.38,138.51 L 672.75,137.97 L 677.01,137.51 L 681.16,137.12 L 685.21,136.81 L 689.16,136.57 L 693.02,136.41 L 696.78,136.32 L 700.46,136.31 L 704.06,136.36 L 707.58,136.48 L 711.04,136.67 L 714.43,136.93 L 717.77,137.26 L 721.05,137.66 L 724.30,138.12 L 727.51,138.64 L 730.69,139.24 L 733.86,139.89 L 737.01,140.61 L 740.15,141.40 L 743.30,142.25 L 746.45,143.16 L 749.63,144.14 L 752.82,145.18 L 756.05,146.29 L 759.32,147.46 L 762.62,148.69 L 765.98,149.99 L 769.40,151.36 L 772.87,152.78 L 776.41,154.28 L 780.03,155.84 L 783.71,157.46 L 787.48,159.16 L 791.33,160.92 L 795.26,162.75 L 799.28,164.64 L 803.39,166.61 L 807.59,168.65 L 811.88,170.76 L 816.27,172.94 L 820.74,175.19 L 825.30,177.52 L 829.95,179.92 L 834.68,182.39 L 839.50,184.95 L 844.39,187.57 L 849.36,190.28 L 854.40,193.07 L 859.51,195.93 L 864.67,198.88 L 869.89,201.91 L 875.15,205.02 L 880.45,208.21 L 885.79,211.49 L 891.14,214.85 L 896.51,218.30 L 901.89,221.84 L 907.26,225.46 L 912.62,229.16 L 917.95,232.96 L 923.25,236.85 L 928.51,240.82 L 933.71,244.88 L 938.85,249.03 L 943.91,253.28 L 948.88,257.61 L 953.75,262.03 L 958.52,266.54 L 963.17,271.14 L 967.68,275.83 L 972.05,280.61 L 976.27,285.48 L 980.33,290.44 L 984.22,295.49 L 987.92,300.62 L 991.43,305.84 L 994.74,311.15 L 997.84,316.54 L 1000.73,322.01 L 1003.39,327.57 L 1005.81,333.21 L 1007.99,338.93 L 1009.93,344.72 L 1011.62,350.59 L 1013.04,356.54 L 1014.21,362.56 L 1015.11,368.65 L 1015.74,374.80 L 1016.10,381.03 L 1016.18,387.31 L 1015.99,393.66 L 1015.52,400.07 L 1014.77,406.53 L 1013.75,413.05 L 1012.46,419.61 L 1010.89,426.23 L 1009.05,432.88 L 1006.94,439.58 L 1004.57,446.31 L 1001.95,453.08 L 999.07,459.87 L 995.94,466.69 L 992.57,473.54 L 988.96,480.40 L 985.13,487.27 L 981.08,494.16 L 976.82,501.05 L 972.36,507.94 L 967.71,514.83 L 962.87,521.71 L 957.86,528.58 L 952.69,535.43 L 947.36,542.27 L 941.90,549.07 L 936.30,555.85 L 930.58,562.59 L 924.76,569.29 L 918.84,575.95 L 912.84,582.55 L 906.76,589.11 L 900.62,595.60 L 894.43,602.03 L 888.19,608.39 L 881.93,614.67 L 875.66,620.88 L 869.37,627.00 L 863.09,633.03 L 856.82,638.97 L 850.57,644.82 L 844.36,650.55 L 838.18,656.18 L 832.06,661.70 L 825.99,667.10 L 819.99,672.38 L 814.07,677.53 L 808.22,682.56 L 802.45,687.44 L 796.78,692.19 L 791.20,696.80 L 785.72,701.25 L 780.35,705.56 L 775.08,709.71 L 769.92,713.70 L 764.88,717.53 L 759.94,721.19 L 755.13,724.69 L 750.42,728.01 L 745.83,731.15 L 741.35,734.12 L 736.98,736.90 L 732.72,739.50 L 728.57,741.91 L 724.51,744.13 L 720.56,746.17 L 716.71,748.00 L 712.94,749.64 L 709.26,751.09 L 705.67,752.33 L 702.14,753.38 L 698.69,754.22 L 695.30,754.86 L 691.96,755.30 L 688.67,755.53 L 685.43,755.56 L 682.22,755.39 L 679.03,755.01 L 675.87,754.42 " fill="none" stroke="#E11D48" stroke-opacity="0.2" stroke-width="2.0" stroke-linecap="round" stroke-linejoin="round"/>
<path d="M 357.42,478.19 L 357.59,472.20 L 357.91,466.11 L 358.37,459.91 L 358.96,453.60 L 359.67,447.20 L 360.50,440.70 L 361.43,434.12 L 362.46,427.44 L 363.57,420.68 L 364.77,413.83 L 366.04,406.91 L 367.37,399.92 L 368.76,392.85 L 370.20,385.72 L 371.69,378.54 L 373.21,371.29 L 374.77,363.99 L 376.35,356.65 L 377.96,349.26 L 379.58,341.84 L 381.23,334.38 L 382.88,326.89 L 384.54,319.39 L 386.21,311.86 L 387.88,304.32 L 389.56,296.78 L 391.24,289.23 L 392.92,281.68 L 394.61,274.15 L 396.31,266.62 L 398.01,259.12 L 399.73,251.64 L 401.45,244.19 L 403.19,236.77 L 404.95,229.40 L 406.74,222.07 L 408.55,214.80 L 410.40,207.58 L 412.28,200.42 L 414.21,193.33 L 416.19,186.32 L 418.23,179.38 L 420.33,172.53 L 422.50,165.76 L 424.75,159.09 L 427.09,152.52 L 429.51,146.05 L 432.04,139.69 L 434.67,133.44 L 437.42,127.31 L 440.30,121.31 L 443.30,115.43 L 446.44,109.68 L 449.73,104.07 L 453.17,98.60 L 456.77,93.27 L 460.53,88.09 L 464.47,83.07 L 468.59,78.20 L 472.89,73.49 L 477.38,68.94 L 482.06,64.56 L 486.95,60.34 L 492.03,56.30 L 497.33,52.43 L 502.83,48.74 L 508.55,45.23 L 514.48,41.91 L 520.63,38.76 L 527.00,35.81 L 533.58,33.04 L 540.38,30.46 L 547.39,28.07 L 554.62,25.88 L 562.06,23.87 L 569.71,22.07 L 577.57,20.46 L 585.62,19.04 L 593.87,17.82 L 602.31,16.80 L 610.94,15.97 L 619.74,15.34 L 628.71,14.90 L 637.84,14.66 L 647.13,14.62 L 656.56,14.77 L 666.13,15.11 L 675.82,15.64 L 685.63,16.37 L 695.54,17.28 L 705.54,18.38 L 715.62,19.67 L 725.77,21.14 L 735.98,22.79 L 746.23,24.62 L 756.51,26.63 L 766.81,28.81 L 777.11,31.16 L 787.41,33.68 L 797.68,36.37 L 807.92,39.22 L 818.11,42.23 L 828.24,45.39 L 838.29,48.71 L 848.26,52.18 L 858.12,55.79 L 867.88,59.55 L 877.50,63.44 L 886.99,67.47 L 896.33,71.63 L 905.51,75.91 L 914.52,80.32 L 923.34,84.85 L 931.97,89.48 L 940.40,94.23 L 948.62,99.09 L 956.62,104.04 L 964.39,109.10 L 971.93,114.24 L 979.22,119.47 L 986.26,124.79 L 993.06,130.19 L 999.59,135.66 L 1005.86,141.20 L 1011.86,146.80 L 1017.60,152.47 L 1023.06,158.20 L 1028.25,163.98 L 1033.17,169.81 L 1037.81,175.68 L 1042.18,181.59 L 1046.27,187.54 L 1050.09,193.52 L 1053.65,199.52 L 1056.94,205.55 L 1059.97,211.60 L 1062.73,217.67 L 1065.25,223.75 L 1067.51,229.83 L 1069.54,235.92 L 1071.32,242.01 L 1072.88,248.10 L 1074.21,254.18 L 1075.33,260.25 L 1076.24,266.31 L 1076.95,272.36 L 1077.46,278.38 L 1077.79,284.38 L 1077.95,290.36 L 1077.94,296.31 L 1077.77,302.23 L 1077.45,308.12 L 1076.99,313.97 L 1076.40,319.78 L 1075.69,325.55 L 1074.86,331.29 L 1073.93,336.97 L 1072.90,342.62 L 1071.79,348.21 L 1070.59,353.76 L 1069.32,359.25 L 1067.99,364.69 L 1066.60,370.08 L 1065.16,375.41 L 1063.67,380.69 L 1062.15,385.91 L 1060.59,391.07 L 1059.01,396.17 L 1057.40,401.21 L 1055.77,406.20 L 1054.13,411.12 L 1052.48,415.98 L 1050.82,420.77 L 1049.15,425.51 L 1047.48,430.18 L 1045.80,434.79 L 1044.12,439.34 L 1042.43,443.82 L 1040.74,448.24 L 1039.05,452.60 L 1037.35,456.90 L 1035.63,461.13 L 1033.91,465.31 L 1032.17,469.42 L 1030.40,473.47 L 1028.62,477.45 L 1026.81,481.38 L 1024.96,485.25 L 1023.08,489.06 L 1021.15,492.81 L 1019.17,496.50 L 1017.13,500.13 L 1015.03,503.71 L 1012.86,507.23 L 1010.61,510.69 L 1008.27,514.10 L 1005.85,517.46 L 1003.32,520.75 L 1000.68,524.00 L 997.93,527.19 L 995.06,530.33 L 992.06,533.42 L 988.92,536.46 L 985.63,539.44 L 982.19,542.37 L 978.59,545.26 L 974.83,548.09 L 970.89,550.88 L 966.77,553.61 L 962.47,556.30 L 957.98,558.93 L 953.30,561.52 L 948.41,564.06 L 943.33,566.55 L 938.03,568.99 L 932.53,571.38 L 926.81,573.72 L 920.88,576.01 L 914.73,578.25 L 908.36,580.44 L 901.78,582.59 L 894.98,584.67 L 887.96,586.71 L 880.74,588.70 L 873.29,590.63 L 865.65,592.51 L 857.79,594.33 L 849.74,596.10 L 841.49,597.81 L 833.05,599.46 L 824.42,601.05 L 815.62,602.58 L 806.65,604.05 L 797.51,605.46 L 788.23,606.80 L 778.80,608.08 L 769.23,609.29 L 759.54,610.43 L 749.73,611.50 L 739.82,612.50 L 729.82,613.43 L 719.74,614.28 L 709.59,615.05 L 699.38,615.74 L 689.13,616.35 L 678.85,616.88 L 668.55,617.33 L 658.25,617.69 L 647.95,617.96 L 637.68,618.13 L 627.44,618.22 L 617.25,618.21 L 607.12,618.11 L 597.07,617.91 L 587.10,617.60 L 577.23,617.20 L 567.48,616.69 L 557.86,616.07 L 548.37,615.35 L 539.03,614.51 L 529.85,613.57 L 520.84,612.51 L 512.02,611.33 L 503.39,610.04 L 494.96,608.63 L 486.74,607.10 L 478.74,605.45 L 470.97,603.68 L 463.43,601.78 L 456.14,599.75 L 449.09,597.60 L 442.30,595.32 L 435.77,592.91 L 429.50,590.37 L 423.49,587.70 L 417.76,584.90 L 412.30,581.96 L 407.11,578.89 L 402.19,575.69 L 397.55,572.36 L 393.18,568.89 L 389.09,565.28 L 385.26,561.55 L 381.71,557.68 L 378.42,553.67 L 375.39,549.53 L 372.63,545.26 L 370.11,540.86 L 367.84,536.33 L 365.82,531.67 L 364.03,526.87 L 362.48,521.95 L 361.14,516.91 L 360.03,511.74 L 359.12,506.44 L 358.41,501.03 L 357.90,495.49 L 357.57,489.84 L 357.41,484.07 L 357.42,478.19 L 357.59,472.20 L 357.91,466.11 L 358.37,459.91 L 358.96,453.60 L 359.67,447.20 L 360.50,440.70 L 361.43,434.12 L 362.46,427.44 L 363.57,420.68 L 364.77,413.83 L 366.04,406.91 L 367.37,399.92 L 368.76,392.85 L 370.20,385.72 L 371.69,378.54 L 373.21,371.29 L 374.77,363.99 L 376.35,356.65 L 377.96,349.26 L 379.58,341.84 L 381.23,334.38 L 382.88,326.89 L 384.54,319.39 L 386.21,311.86 L 387.88,304.32 L 389.56,296.78 L 391.24,289.23 L 392.92,281.68 L 394.61,274.15 L 396.31,266.62 L 398.01,259.12 L 399.73,251.64 L 401.45,244.19 L 403.19,236.77 L 404.95,229.40 L 406.74,222.07 L 408.55,214.80 L 410.40,207.58 L 412.28,200.42 L 414.21,193.33 L 416.19,186.32 L 418.23,179.38 L 420.33,172.53 L 422.50,165.76 L 424.75,159.09 L 427.09,152.52 L 429.51,146.05 L 432.04,139.69 L 434.67,133.44 L 437.42,127.31 L 440.30,121.31 L 443.30,115.43 L 446.44,109.68 L 449.73,104.07 L 453.17,98.60 L 456.77,93.27 L 460.53,88.09 L 464.47,83.07 L 468.59,78.20 L 472.89,73.49 L 477.38,68.94 L 482.06,64.56 L 486.95,60.34 L 492.03,56.30 L 497.33,52.43 L 502.83,48.74 L 508.55,45.23 L 514.48,41.91 L 520.63,38.76 L 527.00,35.81 L 533.58,33.04 L 540.38,30.46 L 547.39,28.07 L 554.62,25.88 L 562.06,23.87 L 569.71,22.07 L 577.57,20.46 L 585.62,19.04 L 593.87,17.82 L 602.31,16.80 L 610.94,15.97 L 619.74,15.34 L 628.71,14.90 L 637.84,14.66 L 647.13,14.62 L 656.56,14.77 L 666.13,15.11 L 675.82,15.64 L 685.63,16.37 L 695.54,17.28 L 705.54,18.38 L 715.62,19.67 L 725.77,21.14 L 735.98,22.79 L 746.23,24.62 L 756.51,26.63 L 766.81,28.81 L 777.11,31.16 L 787.41,33.68 L 797.68,36.37 L 807.92,39.22 L 818.11,42.23 L 828.24,45.39 L 838.29,48.71 L 848.26,52.18 L 858.12,55.79 L 867.88,59.55 L 877.50,63.44 L 886.99,67.47 L 896.33,71.63 L 905.51,75.91 L 914.52,80.32 L 923.34,84.85 L 931.97,89.48 L 940.40,94.23 L 948.62,99.09 L 956.62,104.04 L 964.39,109.10 L 971.93,114.24 L 979.22,119.47 L 986.26,124.79 L 993.06,130.19 L 999.59,135.66 L 1005.86,141.20 L 1011.86,146.80 L 1017.60,152.47 L 1023.06,158.20 L 1028.25,163.98 L 1033.17,169.81 L 1037.81,175.68 L 1042.18,181.59 L 1046.27,187.54 L 1050.09,193.52 L 1053.65,199.52 L 1056.94,205.55 L 1059.97,211.60 L 1062.73,217.67 L 1065.25,223.75 L 1067.51,229.83 L 1069.54,235.92 L 1071.32,242.01 L 1072.88,248.10 L 1074.21,254.18 L 1075.33,260.25 L 1076.24,266.31 L 1076.95,272.36 L 1077.46,278.38 L 1077.79,284.38 L 1077.95,290.36 L 1077.94,296.31 L 1077.77,302.23 L 1077.45,308.12 L 1076.99,313.97 L 1076.40,319.78 L 1075.69,325.55 L 1074.86,331.29 L 1073.93,336.97 L 1072.90,342.62 L 1071.79,348.21 L 1070.59,353.76 L 1069.32,359.25 L 1067.99,364.69 L 1066.60,370.08 L 1065.16,375.41 L 1063.67,380.69 L 1062.15,385.91 L 1060.59,391.07 L 1059.01,396.17 L 1057.40,401.21 L 1055.77,406.20 L 1054.13,411.12 L 1052.48,415.98 L 1050.82,420.77 L 1049.15,425.51 L 1047.48,430.18 L 1045.80,434.79 L 1044.12,439.34 L 1042.43,443.82 L 1040.74,448.24 L 1039.05,452.60 L 1037.35,456.90 L 1035.63,461.13 L 1033.91,465.31 L 1032.17,469.42 L 1030.40,473.47 L 1028.62,477.45 L 1026.81,481.38 L 1024.96,485.25 L 1023.08,489.06 L 1021.15,492.81 L 1019.17,496.50 L 1017.13,500.13 L 1015.03,503.71 L 1012.86,507.23 L 1010.61,510.69 L 1008.27,514.10 L 1005.85,517.46 L 1003.32,520.75 L 1000.68,524.00 L 997.93,527.19 L 995.06,530.33 L 992.06,533.42 L 988.92,536.46 L 985.63,539.44 L 982.19,542.37 L 978.59,545.26 L 974.83,548.09 L 970.89,550.88 L 966.77,553.61 L 962.47,556.30 L 957.98,558.93 L 953.30,561.52 L 948.41,564.06 L 943.33,566.55 L 938.03,568.99 L 932.53,571.38 L 926.81,573.72 L 920.88,576.01 L 914.73,578.25 L 908.36,580.44 L 901.78,582.59 L 894.98,584.67 L 887.96,586.71 L 880.74,588.70 L 873.29,590.63 L 865.65,592.51 L 857.79,594.33 L 849.74,596.10 L 841.49,597.81 L 833.05,599.46 L 824.42,601.05 L 815.62,602.58 L 806.65,604.05 L 797.51,605.46 L 788.23,606.80 L 778.80,608.08 L 769.23,609.29 L 759.54,610.43 L 749.73,611.50 L 739.82,612.50 L 729.82,613.43 L 719.74,614.28 L 709.59,615.05 L 699.38,615.74 L 689.13,616.35 L 678.85,616.88 L 668.55,617.33 L 658.25,617.69 L 647.95,617.96 L 637.68,618.13 L 627.44,618.22 L 617.25,618.21 L 607.12,618.11 L 597.07,617.91 L 587.10,617.60 L 577.23,617.20 L 567.48,616.69 L 557.86,616.07 L 548.37,615.35 L 539.03,614.51 L 529.85,613.57 L 520.84,612.51 L 512.02,611.33 L 503.39,610.04 L 494.96,608.63 L 486.74,607.10 L 478.74,605.45 L 470.97,603.68 L 463.43,601.78 L 456.14,599.75 L 449.09,597.60 L 442.30,595.32 L 435.77,592.91 L 429.50,590.37 L 423.49,587.70 L 417.76,584.90 L 412.30,581.96 L 407.11,578.89 L 402.19,575.69 L 397.55,572.36 L 393.18,568.89 L 389.09,565.28 L 385.26,561.55 L 381.71,557.68 L 378.42,553.67 L 375.39,549.53 L 372.63,545.26 L 370.11,540.86 L 367.84,536.33 L 365.82,531.67 L 364.03,526.87 L 362.48,521.95 L 361.14,516.91 L 360.03,511.74 L 359.12,506.44 L 358.41,501.03 L 357.90,495.49 L 357.57,489.84 L 357.41,484.07 L 357.42,478.19 " fill="none" stroke="#E11D48" stroke-opacity="0.22000000000000003" stroke-width="2.2" stroke-linecap="round" stroke-linejoin="round"/>
<path d="M 863.81,759.62 L 859.82,762.01 L 855.75,764.23 L 851.58,766.30 L 847.30,768.21 L 842.93,769.96 L 838.43,771.55 L 833.82,772.98 L 829.07,774.25 L 824.20,775.36 L 819.18,776.31 L 814.03,777.10 L 808.72,777.73 L 803.26,778.20 L 797.65,778.51 L 791.87,778.67 L 785.93,778.68 L 779.83,778.53 L 773.56,778.22 L 767.13,777.77 L 760.52,777.17 L 753.75,776.42 L 746.80,775.53 L 739.69,774.49 L 732.42,773.32 L 724.98,772.00 L 717.38,770.55 L 709.63,768.96 L 701.72,767.25 L 693.67,765.41 L 685.47,763.44 L 677.14,761.35 L 668.68,759.14 L 660.09,756.82 L 651.39,754.38 L 642.59,751.83 L 633.69,749.18 L 624.70,746.42 L 615.64,743.57 L 606.50,740.62 L 597.31,737.57 L 588.07,734.44 L 578.80,731.22 L 569.50,727.92 L 560.19,724.54 L 550.89,721.09 L 541.59,717.57 L 532.33,713.98 L 523.10,710.32 L 513.92,706.61 L 504.81,702.84 L 495.77,699.02 L 486.82,695.14 L 477.98,691.22 L 469.25,687.26 L 460.64,683.26 L 452.18,679.23 L 443.87,675.16 L 435.72,671.07 L 427.75,666.94 L 419.96,662.80 L 412.37,658.64 L 404.98,654.46 L 397.82,650.27 L 390.87,646.07 L 384.17,641.86 L 377.70,637.65 L 371.49,633.43 L 365.54,629.22 L 359.85,625.01 L 354.43,620.81 L 349.29,616.61 L 344.43,612.42 L 339.85,608.25 L 335.56,604.09 L 331.56,599.95 L 327.86,595.83 L 324.45,591.73 L 321.34,587.65 L 318.52,583.59 L 315.99,579.56 L 313.76,575.56 L 311.82,571.58 L 310.17,567.63 L 308.80,563.71 L 307.72,559.82 L 306.91,555.97 L 306.37,552.14 L 306.10,548.35 L 306.09,544.60 L 306.33,540.87 L 306.82,537.18 L 307.55,533.53 L 308.51,529.91 L 309.69,526.33 L 311.08,522.78 L 312.69,519.26 L 314.48,515.78 L 316.47,512.34 L 318.63,508.93 L 320.95,505.55 L 323.44,502.21 L 326.07,498.90 L 328.84,495.63 L 331.74,492.38 L 334.76,489.17 L 337.88,485.99 L 341.10,482.83 L 344.41,479.71 L 347.80,476.62 L 351.26,473.55 L 354.79,470.51 L 358.36,467.50 L 361.98,464.51 L 365.64,461.55 L 369.33,458.61 L 373.04,455.69 L 376.77,452.79 L 380.51,449.92 L 384.25,447.06 L 387.99,444.22 L 391.72,441.40 L 395.45,438.60 L 399.16,435.82 L 402.86,433.05 L 406.54,430.29 L 410.19,427.55 L 413.83,424.82 L 417.44,422.11 L 421.03,419.40 L 424.60,416.71 L 428.15,414.03 L 431.68,411.36 L 435.19,408.70 L 438.68,406.05 L 442.16,403.41 L 445.63,400.78 L 449.10,398.16 L 452.56,395.55 L 456.03,392.95 L 459.51,390.36 L 463.00,387.78 L 466.51,385.20 L 470.05,382.64 L 473.62,380.09 L 477.23,377.55 L 480.89,375.03 L 484.59,372.51 L 488.36,370.01 L 492.19,367.52 L 496.10,365.05 L 500.09,362.60 L 504.16,360.16 L 508.33,357.74 L 512.60,355.34 L 516.98,352.96 L 521.48,350.61 L 526.09,348.28 L 530.83,345.97 L 535.71,343.70 L 540.72,341.45 L 545.88,339.23 L 551.19,337.05 L 556.65,334.90 L 562.26,332.79 L 568.03,330.72 L 573.97,328.69 L 580.07,326.71 L 586.34,324.77 L 592.78,322.87 L 599.39,321.03 L 606.16,319.25 L 613.10,317.51 L 620.21,315.84 L 627.49,314.23 L 634.93,312.67 L 642.52,311.19 L 650.28,309.77 L 658.19,308.43 L 666.24,307.15 L 674.44,305.96 L 682.77,304.84 L 691.23,303.80 L 699.81,302.85 L 708.51,301.98 L 717.32,301.21 L 726.22,300.52 L 735.20,299.93 L 744.27,299.43 L 753.41,299.04 L 762.60,298.74 L 771.84,298.55 L 781.11,298.46 L 790.40,298.48 L 799.71,298.62 L 809.02,298.86 L 818.31,299.22 L 827.58,299.69 L 836.81,300.29 L 845.99,301.00 L 855.10,301.84 L 864.14,302.79 L 873.08,303.87 L 881.93,305.08 L 890.66,306.42 L 899.26,307.88 L 907.73,309.47 L 916.04,311.20 L 924.19,313.05 L 932.16,315.03 L 939.95,317.15 L 947.54,319.40 L 954.92,321.78 L 962.09,324.30 L 969.03,326.95 L 975.74,329.73 L 982.20,332.65 L 988.42,335.69 L 994.37,338.87 L 1000.06,342.18 L 1005.48,345.62 L 1010.62,349.18 L 1015.48,352.88 L 1020.06,356.70 L 1024.35,360.65 L 1028.34,364.72 L 1032.05,368.91 L 1035.46,373.23 L 1038.57,377.66 L 1041.39,382.20 L 1043.91,386.86 L 1046.15,391.63 L 1048.09,396.51 L 1049.74,401.49 L 1051.10,406.58 L 1052.19,411.77 L 1053.00,417.05 L 1053.54,422.43 L 1053.81,427.89 L 1053.82,433.45 L 1053.57,439.08 L 1053.09,444.80 L 1052.36,450.59 L 1051.40,456.45 L 1050.22,462.38 L 1048.82,468.37 L 1047.22,474.42 L 1045.42,480.52 L 1043.44,486.68 L 1041.28,492.88 L 1038.95,499.12 L 1036.47,505.40 L 1033.84,511.71 L 1031.07,518.05 L 1028.17,524.41 L 1025.15,530.78 L 1022.03,537.17 L 1018.81,543.57 L 1015.49,549.97 L 1012.10,556.37 L 1008.64,562.76 L 1005.12,569.14 L 1001.54,575.50 L 997.92,581.84 L 994.26,588.15 L 990.58,594.43 L 986.86,600.67 L 983.14,606.87 L 979.40,613.03 L 975.66,619.13 L 971.92,625.17 L 968.18,631.16 L 964.46,637.07 L 960.75,642.92 L 957.05,648.69 L 953.37,654.38 L 949.71,659.99 L 946.08,665.51 L 942.46,670.94 L 938.87,676.26 L 935.30,681.49 L 931.76,686.62 L 928.23,691.63 L 924.72,696.53 L 921.23,701.32 L 917.75,705.98 L 914.27,710.52 L 910.81,714.94 L 907.34,719.23 L 903.87,723.38 L 900.40,727.40 L 896.90,731.28 L 893.39,735.02 L 889.85,738.62 L 886.28,742.07 L 882.67,745.37 L 879.02,748.53 L 875.31,751.53 L 871.55,754.38 L 867.71,757.08 L 863.81,759.62 L 859.82,762.01 L 855.75,764.23 L 851.58,766.30 L 847.30,768.21 L 842.93,769.96 L 838.43,771.55 L 833.82,772.98 L 829.07,774.25 L 824.20,775.36 L 819.18,776.31 L 814.03,777.10 L 808.72,777.73 L 803.26,778.20 L 797.65,778.51 L 791.87,778.67 L 785.93,778.68 L 779.83,778.53 L 773.56,778.22 L 767.13,777.77 L 760.52,777.17 L 753.75,776.42 L 746.80,775.53 L 739.69,774.49 L 732.42,773.32 L 724.98,772.00 L 717.38,770.55 L 709.63,768.96 L 701.72,767.25 L 693.67,765.41 L 685.47,763.44 L 677.14,761.35 L 668.68,759.14 L 660.09,756.82 L 651.39,754.38 L 642.59,751.83 L 633.69,749.18 L 624.70,746.42 L 615.64,743.57 L 606.50,740.62 L 597.31,737.57 L 588.07,734.44 L 578.80,731.22 L 569.50,727.92 L 560.19,724.54 L 550.89,721.09 L 541.59,717.57 L 532.33,713.98 L 523.10,710.32 L 513.92,706.61 L 504.81,702.84 L 495.77,699.02 L 486.82,695.14 L 477.98,691.22 L 469.25,687.26 L 460.64,683.26 L 452.18,679.23 L 443.87,675.16 L 435.72,671.07 L 427.75,666.94 L 419.96,662.80 L 412.37,658.64 L 404.98,654.46 L 397.82,650.27 L 390.87,646.07 L 384.17,641.86 L 377.70,637.65 L 371.49,633.43 L 365.54,629.22 L 359.85,625.01 L 354.43,620.81 L 349.29,616.61 L 344.43,612.42 L 339.85,608.25 L 335.56,604.09 L 331.56,599.95 L 327.86,595.83 L 324.45,591.73 L 321.34,587.65 L 318.52,583.59 L 315.99,579.56 L 313.76,575.56 L 311.82,571.58 L 310.17,567.63 L 308.80,563.71 L 307.72,559.82 L 306.91,555.97 L 306.37,552.14 L 306.10,548.35 L 306.09,544.60 L 306.33,540.87 L 306.82,537.18 L 307.55,533.53 L 308.51,529.91 L 309.69,526.33 L 311.08,522.78 L 312.69,519.26 L 314.48,515.78 L 316.47,512.34 L 318.63,508.93 L 320.95,505.55 L 323.44,502.21 L 326.07,498.90 L 328.84,495.63 L 331.74,492.38 L 334.76,489.17 L 337.88,485.99 L 341.10,482.83 L 344.41,479.71 L 347.80,476.62 L 351.26,473.55 L 354.79,470.51 L 358.36,467.50 L 361.98,464.51 L 365.64,461.55 L 369.33,458.61 L 373.04,455.69 L 376.77,452.79 L 380.51,449.92 L 384.25,447.06 L 387.99,444.22 L 391.72,441.40 L 395.45,438.60 L 399.16,435.82 L 402.86,433.05 L 406.54,430.29 L 410.19,427.55 L 413.83,424.82 L 417.44,422.11 L 421.03,419.40 L 424.60,416.71 L 428.15,414.03 L 431.68,411.36 L 435.19,408.70 L 438.68,406.05 L 442.16,403.41 L 445.63,400.78 L 449.10,398.16 L 452.56,395.55 L 456.03,392.95 L 459.51,390.36 L 463.00,387.78 L 466.51,385.20 L 470.05,382.64 L 473.62,380.09 L 477.23,377.55 L 480.89,375.03 L 484.59,372.51 L 488.36,370.01 L 492.19,367.52 L 496.10,365.05 L 500.09,362.60 L 504.16,360.16 L 508.33,357.74 L 512.60,355.34 L 516.98,352.96 L 521.48,350.61 L 526.09,348.28 L 530.83,345.97 L 535.71,343.70 L 540.72,341.45 L 545.88,339.23 L 551.19,337.05 L 556.65,334.90 L 562.26,332.79 L 568.03,330.72 L 573.97,328.69 L 580.07,326.71 L 586.34,324.77 L 592.78,322.87 L 599.39,321.03 L 606.16,319.25 L 613.10,317.51 L 620.21,315.84 L 627.49,314.23 L 634.93,312.67 L 642.52,311.19 L 650.28,309.77 L 658.19,308.43 L 666.24,307.15 L 674.44,305.96 L 682.77,304.84 L 691.23,303.80 L 699.81,302.85 L 708.51,301.98 L 717.32,301.21 L 726.22,300.52 L 735.20,299.93 L 744.27,299.43 L 753.41,299.04 L 762.60,298.74 L 771.84,298.55 L 781.11,298.46 L 790.40,298.48 L 799.71,298.62 L 809.02,298.86 L 818.31,299.22 L 827.58,299.69 L 836.81,300.29 L 845.99,301.00 L 855.10,301.84 L 864.14,302.79 L 873.08,303.87 L 881.93,305.08 L 890.66,306.42 L 899.26,307.88 L 907.73,309.47 L 916.04,311.20 L 924.19,313.05 L 932.16,315.03 L 939.95,317.15 L 947.54,319.40 L 954.92,321.78 L 962.09,324.30 L 969.03,326.95 L 975.74,329.73 L 982.20,332.65 L 988.42,335.69 L 994.37,338.87 L 1000.06,342.18 L 1005.48,345.62 L 1010.62,349.18 L 1015.48,352.88 L 1020.06,356.70 L 1024.35,360.65 L 1028.34,364.72 L 1032.05,368.91 L 1035.46,373.23 L 1038.57,377.66 L 1041.39,382.20 L 1043.91,386.86 L 1046.15,391.63 L 1048.09,396.51 L 1049.74,401.49 L 1051.10,406.58 L 1052.19,411.77 L 1053.00,417.05 L 1053.54,422.43 L 1053.81,427.89 L 1053.82,433.45 L 1053.57,439.08 L 1053.09,444.80 L 1052.36,450.59 L 1051.40,456.45 L 1050.22,462.38 L 1048.82,468.37 L 1047.22,474.42 L 1045.42,480.52 L 1043.44,486.68 L 1041.28,492.88 L 1038.95,499.12 L 1036.47,505.40 L 1033.84,511.71 L 1031.07,518.05 L 1028.17,524.41 L 1025.15,530.78 L 1022.03,537.17 L 1018.81,543.57 L 1015.49,549.97 L 1012.10,556.37 L 1008.64,562.76 L 1005.12,569.14 L 1001.54,575.50 L 997.92,581.84 L 994.26,588.15 L 990.58,594.43 L 986.86,600.67 L 983.14,606.87 L 979.40,613.03 L 975.66,619.13 L 971.92,625.17 L 968.18,631.16 L 964.46,637.07 L 960.75,642.92 L 957.05,648.69 L 953.37,654.38 L 949.71,659.99 L 946.08,665.51 L 942.46,670.94 L 938.87,676.26 L 935.30,681.49 L 931.76,686.62 L 928.23,691.63 L 924.72,696.53 L 921.23,701.32 L 917.75,705.98 L 914.27,710.52 L 910.81,714.94 L 907.34,719.23 L 903.87,723.38 L 900.40,727.40 L 896.90,731.28 L 893.39,735.02 L 889.85,738.62 L 886.28,742.07 L 882.67,745.37 L 879.02,748.53 L 875.31,751.53 L 871.55,754.38 L 867.71,757.08 L 863.81,759.62 " fill="none" stroke="#E11D48" stroke-opacity="0.24000000000000002" stroke-width="2.4" stroke-linecap="round" stroke-linejoin="round"/>
</svg>
